<svg viewBox="0 0 137 40" fill="none" xmlns="http://www.w3.org/2000/svg">
<path d="M79.7424 19.8596C81.8501 20.3514 82.8806 22.8807 82.8806 24.52V30.5387L70.4918 19.3209H62.3419V19.7659C64.4028 20.1874 64.4965 21.6863 64.4965 23.4896V34.1453C64.4965 35.7846 63.466 38.3139 61.3583 38.8057V39.3444H70V38.8057C67.8923 38.3139 66.8852 35.7846 66.8618 34.1453V23.2085L83.3958 39.157C83.7002 39.4614 84.2154 40.0001 84.5433 40.0001H84.6136C84.8478 40.0001 85.2693 39.7893 85.2693 39.0165V24.4966C85.2693 22.8572 86.2998 20.328 88.4075 19.8362V19.3209H79.7658L79.7424 19.8596ZM136.628 23.5364L136.581 23.2788L136.511 23.0212L136.417 22.787L136.276 22.5762L136.112 22.3654L135.925 22.1781L135.738 22.0141L135.527 21.8736L135.293 21.78L135.035 21.7097L134.777 21.6629L134.496 21.6394L134.215 21.6629L133.958 21.7097L133.7 21.78L133.466 21.8736L133.232 22.0141L133.044 22.1781L132.857 22.3654L132.693 22.5762L132.553 22.787L132.436 23.0212L132.365 23.2788L132.318 23.5364V23.8174L132.342 24.0985L132.389 24.3561L132.459 24.6137L132.576 24.8479L132.717 25.0586L132.881 25.2694L133.068 25.4568L133.255 25.6207L133.489 25.7612L133.724 25.8783L133.981 25.9486L134.239 25.9954L134.52 26.0188L134.801 25.9954L135.059 25.9486L135.316 25.8783L135.55 25.7612L135.761 25.6207L135.948 25.4568L136.136 25.2694L136.3 25.0586L136.44 24.8479L136.534 24.6137L136.604 24.3561L136.651 24.0985L136.674 23.8174L136.628 23.5364ZM136.276 24.075L136.229 24.3092L136.159 24.5434L136.066 24.7308L135.948 24.9181L135.785 25.0821L135.597 25.246L135.41 25.3865L135.199 25.4802L134.988 25.5504L134.754 25.5973L134.52 25.6207L134.286 25.5973L134.052 25.5504L133.841 25.4802L133.63 25.3865L133.443 25.246L133.255 25.0821L133.091 24.9181L132.951 24.7308L132.834 24.52L132.763 24.2858L132.717 24.0516L132.693 23.794L132.717 23.5364L132.763 23.3022L132.834 23.068L132.951 22.8572L133.091 22.6699L133.255 22.4825L133.443 22.342L133.63 22.2015L133.841 22.1078L134.052 22.0376L134.286 21.9907L134.52 21.9673L134.754 21.9907L134.988 22.0376L135.199 22.1078L135.41 22.2015L135.597 22.342L135.785 22.4825L135.948 22.6699L136.066 22.8572L136.183 23.068L136.253 23.3022L136.3 23.5364L136.323 23.794L136.276 24.075ZM122.201 19.8596C124.309 20.3514 125.316 22.8572 125.34 24.52V30.5387L112.927 19.3209H104.778V19.7659C106.838 20.1874 106.932 21.6863 106.932 23.4896V34.1453C106.932 35.7846 105.902 38.3139 103.794 38.8057V39.3444H112.436V38.8057C110.328 38.3139 109.321 35.7846 109.297 34.1453V23.2085L125.855 39.157C126.159 39.4614 126.674 40.0001 127.002 40.0001H127.073C127.307 40.0001 127.728 39.7893 127.728 39.0165V24.4966C127.728 22.8572 128.759 20.328 130.867 19.8362V19.3209H122.225L122.201 19.8596ZM99.2506 35.2694V22.5294C99.2271 20.4216 99.8126 20.1406 100.89 19.8127V19.3209H91.288V19.8127C92.3887 20.1406 92.9742 20.4216 92.9508 22.5294V35.2694C92.9508 36.534 92.178 38.4544 90.6089 38.8525V39.3444H101.616V38.8525C100 38.4778 99.2506 36.534 99.2506 35.2694ZM28.4543 35.2694V22.5294C28.4309 20.4216 29.0164 20.1406 30.0937 19.8127V19.3209H21.1007L14.7073 32.623V32.6699L9.71897 19.2975V19.2741H0.983606V19.7191C3.0445 20.1406 3.13817 21.6394 3.13817 23.4427V34.0985C3.13817 35.7378 2.10773 38.2671 0 38.7589V39.2975H8.64169V38.7589C6.53396 38.2671 5.52693 35.7378 5.50351 34.0985V23.2319L13.0913 39.8127H13.5363L15.6909 35.3631L22.0843 22.1078L22.1311 35.2694C22.1311 36.534 21.3583 38.4544 19.7892 38.8525V39.3444H30.7962V38.8525C29.2037 38.4778 28.4543 36.534 28.4543 35.2694ZM135.457 22.9977L135.41 22.9041L135.34 22.8338L135.246 22.7636L135.152 22.7167L135.035 22.6699L134.918 22.6465L134.801 22.623H133.653V25.0586H134.005V23.9345H134.45L135.082 25.0586H135.48L134.871 23.9345H134.988L135.105 23.9111L135.199 23.8643L135.293 23.8174L135.363 23.7472L135.433 23.6535L135.48 23.5364L135.503 23.4193V23.2788V23.1383L135.457 22.9977ZM135.129 23.3959L135.082 23.4661L135.035 23.513L134.965 23.5598L134.871 23.5832L134.777 23.6066H134.684H134.567H134.45H133.981V22.9977H134.707H134.801L134.895 23.0212L134.965 23.0446L135.035 23.0914L135.082 23.1383L135.129 23.1851V23.2788V23.3959ZM46.089 19.1804C38.829 19.1804 32.9508 23.7472 32.9508 29.4146C32.9508 35.0821 38.829 39.6254 46.089 39.6254C53.3489 39.6254 59.2272 35.0352 59.2272 29.3912C59.2272 23.7472 53.3489 19.1804 46.089 19.1804ZM46.089 38.5715C42.2717 38.5481 39.7658 35.6675 39.7658 29.3444C39.7658 23.0212 42.2717 20.164 46.089 20.1874C49.9063 20.164 52.4122 23.0212 52.4122 29.3444C52.4122 35.6675 49.9063 38.5715 46.089 38.5715Z" fill="#fff"/>
<path d="M98.4313 0C90.7966 0.749415 89.2276 7.49414 90.7498 11.733C91.1011 12.7166 91.5929 13.6534 92.2486 14.4731C91.9676 14.1218 91.71 13.7237 91.4992 13.3255C91.3353 12.9742 91.1948 12.5995 91.0777 12.2248C90.2346 8.8993 91.2884 6.48712 93.1151 4.54333C94.9418 2.59953 96.2533 2.06089 97.073 1.42857C97.6819 1.00703 98.2205 0.538642 98.7358 0L98.4313 0Z" fill="#fff"/>
<path d="M93.3253 15.6206C92.8335 15.1991 92.4119 14.7073 92.1075 14.1452C91.1473 12.2717 91.2878 8.71194 93.8405 6.29977C96.3932 3.88759 98.618 2.62295 99.5313 1.68618C100.445 0.749415 100.609 0.491803 100.702 0.234192H100.726L100.609 0.210773C100.492 0.187354 100.351 0.140515 100.234 0.117096L100.117 0.0936768C99.9763 0.0702576 99.8358 0.0468384 99.7187 0.0234192H99.6484C99.5079 0 99.3674 0 99.2269 0H99.2035C99.063 0 98.9224 0 98.7819 0L98.7585 0.0234192C98.2433 0.562061 97.7046 1.03044 97.0958 1.45199C96.2761 2.08431 94.9646 2.62295 93.1379 4.56674C91.3112 6.51054 90.2573 8.8993 91.1004 12.2482C91.1941 12.623 91.3346 12.9977 91.522 13.3489C91.7562 13.7471 91.9904 14.1218 92.2714 14.4965C92.4119 14.6604 92.529 14.8244 92.6695 14.9649L92.6929 14.9883C92.8335 15.1288 92.9506 15.2693 93.0911 15.3864C93.1379 15.4567 93.2316 15.5269 93.3253 15.6206Z" fill="#fff"/>
<path d="M93.5132 15.199C92.8809 14.0983 92.1783 12.1779 93.6771 9.57839C94.9886 7.28331 96.4874 5.99525 99.0635 4.30907C100.75 3.20837 102.085 1.68612 102.155 0.772772L102.038 0.702515L101.874 0.632257H101.85L101.569 0.515161L101.429 0.468323C101.335 0.421484 101.218 0.398065 101.124 0.351227H101.101C100.984 0.304388 100.867 0.280969 100.726 0.234131H100.703C100.586 0.468323 100.445 0.749353 99.5319 1.68612C98.6186 2.62289 96.3938 3.86411 93.8411 6.27629C91.2884 8.68846 91.1244 12.2716 92.108 14.1217C92.4125 14.6838 92.834 15.199 93.3258 15.5971L93.3727 15.644L93.56 15.7845C94.0284 16.1592 94.5436 16.4871 95.0823 16.7681L95.1057 16.7915L95.3399 16.9086L95.5038 16.9789C95.3867 16.9086 95.2696 16.8383 95.1525 16.7681C94.6607 16.4636 93.9113 15.925 93.5132 15.199Z" fill="#fff"/>
<path d="M99.0397 4.30902C96.4635 5.9952 94.9881 7.28326 93.6532 9.57834C92.1778 12.1779 92.857 14.0982 93.4893 15.199C93.9109 15.9015 94.6603 16.4636 95.1287 16.768C94.6603 16.3933 93.9577 15.48 93.7938 13.3488C93.6532 10.5385 98.1029 7.16617 99.227 6.34649C100.562 5.33947 103.255 3.48935 103.138 1.40504C103.021 1.31136 102.904 1.21769 102.763 1.14743L102.67 1.10059C102.506 0.983496 102.342 0.889819 102.154 0.819562L102.108 0.796143C102.061 1.68607 100.749 3.20832 99.0397 4.30902Z" fill="#fff"/>
<path d="M94.7537 14.8479C94.7068 12.9509 95.7139 11.2648 97.6811 9.85961C99.6483 8.45445 104.543 4.91815 104.051 2.2952C103.981 2.20153 103.911 2.10785 103.817 2.01417C103.723 1.9205 103.7 1.89708 103.653 1.85024C103.559 1.75656 103.466 1.66288 103.372 1.59263C103.325 1.54579 103.255 1.49895 103.208 1.45211L103.138 1.40527C103.255 3.48958 100.562 5.3397 99.2267 6.34673C98.1026 7.1664 93.653 10.5388 93.8169 13.3491C94.0043 15.5036 94.7068 16.3936 95.1518 16.7683C95.2923 16.8619 95.386 16.9088 95.4797 16.9556C95.4563 16.9322 95.4094 16.9088 95.386 16.8619C95.1284 16.6512 94.7771 16.1125 94.7537 14.8479Z" fill="#fff"/>
<path d="M104.801 3.65348C104.801 3.63006 104.778 3.58322 104.754 3.53638C104.707 3.41929 104.661 3.30219 104.614 3.1851L104.59 3.13826C104.567 3.11484 104.567 3.068 104.544 3.04458L104.473 2.92748C104.403 2.81039 104.333 2.69329 104.262 2.5762L104.239 2.52936L104.122 2.36542L104.099 2.342L104.052 2.29517C104.544 4.8947 99.6021 8.45442 97.6583 9.85957C95.7145 11.2647 94.7074 12.9509 94.7309 14.8479C94.7543 16.1125 95.129 16.6511 95.3632 16.8853C95.2227 16.7214 95.0353 16.4169 95.0353 15.7612C95.0353 14.6371 95.6676 13.7237 97.1196 12.4123C98.3608 11.335 99.6489 10.328 100.984 9.4146C101.64 8.94622 105.059 6.55746 104.848 3.86425C104.848 3.81741 104.825 3.77058 104.801 3.74716C104.778 3.72374 104.801 3.6769 104.801 3.65348Z" fill="#fff"/>
<path d="M105.105 5.29283C105.105 5.05864 105.082 4.80103 105.035 4.56683C105.035 4.54341 105.035 4.54341 105.035 4.52C105.035 4.49658 105.012 4.44974 105.012 4.4029C104.988 4.30922 104.965 4.21555 104.941 4.14529C104.918 4.07503 104.895 3.95793 104.871 3.86426C105.082 6.58089 101.639 8.94623 101.007 9.41461C99.6722 10.3514 98.3607 11.335 97.1429 12.4123C95.6909 13.7472 95.0586 14.6371 95.0586 15.7612C95.0586 16.417 95.2459 16.7214 95.3865 16.8853C95.4333 16.9322 95.4801 16.9556 95.527 16.979L95.5972 17.0259C94.8478 14.0516 99.9766 11.4989 101.546 10.5622C103.115 9.62538 104.59 8.0563 104.988 6.51063C105.082 6.1125 105.129 5.71438 105.105 5.29283Z" fill="#fff"/>
</svg>
