<svg width="190" height="115" viewBox="0 0 190 115" fill="none" xmlns="http://www.w3.org/2000/svg">
<path d="M44.8318 29.7369H80.6675V32.57H48.1167V53.8931H78.7264V56.7262H48.1167V80.1369H81.0408V82.97H44.8318V29.7369ZM83.8778 29.7369H87.6854L104.558 53.1475L121.804 29.7369L145.261 0L106.723 55.6079L126.582 82.97H122.625L104.558 58.0682L86.4162 82.97H82.534L102.542 55.6079L83.8778 29.7369ZM128.001 32.57V29.7369H168.838V32.57H150.025V82.97H146.74V32.57H128.001Z" fill="white"/>
<path d="M0 29.7363H4.10618L60.728 114.015L37.3289 82.9694L3.43426 33.7624L3.28494 82.9694H0V29.7363Z" fill="white"/>
<path d="M168.508 79.2824C169.187 79.2824 169.682 78.7652 169.682 78.0967C169.682 77.4283 169.187 76.911 168.508 76.911C167.836 76.911 167.333 77.4283 167.333 78.0967C167.333 78.7652 167.836 79.2824 168.508 79.2824ZM171.735 76.163C171.735 78.1365 173.166 79.4256 175.251 79.4256C177.472 79.4256 178.814 78.0967 178.814 75.789V67.6643H177.025V75.781C177.025 77.0622 176.377 77.7466 175.235 77.7466C174.212 77.7466 173.517 77.11 173.493 76.163H171.735ZM181.155 76.0596C181.283 78.1126 183.001 79.4256 185.558 79.4256C188.29 79.4256 190 78.049 190 75.8527C190 74.1259 189.025 73.1709 186.66 72.6219L185.39 72.3115C183.888 71.9614 183.281 71.4919 183.281 70.6722C183.281 69.6378 184.223 68.9613 185.637 68.9613C186.98 68.9613 187.907 69.6218 188.074 70.6802H189.816C189.712 68.7465 188.002 67.3857 185.661 67.3857C183.145 67.3857 181.467 68.7465 181.467 70.7916C181.467 72.4786 182.418 73.4813 184.503 73.9667L185.989 74.3248C187.515 74.6829 188.186 75.2081 188.186 76.0834C188.186 77.102 187.132 77.8421 185.693 77.8421C184.151 77.8421 183.081 77.1498 182.929 76.0596H181.155Z" fill="white"/>
</svg>
