<svg width="647" height="669" viewBox="0 0 647 669" fill="none" xmlns="http://www.w3.org/2000/svg">
<mask id="path-1-inside-1" fill="white">
<path fill-rule="evenodd" clip-rule="evenodd" d="M507.607 246.378C490.666 263.823 483.23 282.41 490.297 294.773C500.921 313.361 540.302 310.843 578.257 289.149C616.212 267.456 638.368 234.801 627.743 216.213C620.677 203.849 600.888 200.823 577.259 206.567C594.199 189.121 601.635 170.535 594.568 158.171C587.815 146.355 569.44 143.068 547.199 147.814C562.576 131.058 569.069 113.557 562.315 101.741C555.248 89.3779 535.459 86.3518 511.83 92.0953C528.771 74.6499 536.206 56.063 529.14 43.6995C518.515 25.1116 479.134 27.6296 441.179 49.3235C403.225 71.0174 381.069 103.672 391.693 122.26C398.76 134.624 418.549 137.65 442.178 131.906C425.237 149.352 417.802 167.938 424.868 180.302C431.622 192.118 449.996 195.405 472.238 190.659C456.861 207.415 450.368 224.916 457.122 236.732C464.189 249.095 483.977 252.121 507.607 246.378Z"/>
</mask>
<path fill-rule="evenodd" clip-rule="evenodd" d="M507.607 246.378C490.666 263.823 483.23 282.41 490.297 294.773C500.921 313.361 540.302 310.843 578.257 289.149C616.212 267.456 638.368 234.801 627.743 216.213C620.677 203.849 600.888 200.823 577.259 206.567C594.199 189.121 601.635 170.535 594.568 158.171C587.815 146.355 569.44 143.068 547.199 147.814C562.576 131.058 569.069 113.557 562.315 101.741C555.248 89.3779 535.459 86.3518 511.83 92.0953C528.771 74.6499 536.206 56.063 529.14 43.6995C518.515 25.1116 479.134 27.6296 441.179 49.3235C403.225 71.0174 381.069 103.672 391.693 122.26C398.76 134.624 418.549 137.65 442.178 131.906C425.237 149.352 417.802 167.938 424.868 180.302C431.622 192.118 449.996 195.405 472.238 190.659C456.861 207.415 450.368 224.916 457.122 236.732C464.189 249.095 483.977 252.121 507.607 246.378Z" fill="#F24E1E"/>
<path d="M507.607 246.378L509.759 248.468L517.005 241.006L506.898 243.463L507.607 246.378ZM577.259 206.567L575.106 204.477L567.861 211.938L577.967 209.482L577.259 206.567ZM547.199 147.814L544.989 145.785L538.635 152.708L547.825 150.748L547.199 147.814ZM511.83 92.0953L509.677 90.0053L502.432 97.467L512.538 95.0104L511.83 92.0953ZM442.178 131.906L444.33 133.996L451.576 126.534L441.47 128.991L442.178 131.906ZM472.238 190.659L474.448 192.688L480.801 185.765L471.612 187.725L472.238 190.659ZM505.455 244.288C496.792 253.208 490.416 262.562 487.135 271.442C483.857 280.316 483.569 289.049 487.692 296.262L492.902 293.285C489.958 288.135 489.855 281.393 492.763 273.521C495.669 265.655 501.481 256.993 509.759 248.468L505.455 244.288ZM487.692 296.262C493.889 307.103 507.974 311.1 524.22 310.061C540.685 309.008 560.459 302.778 579.746 291.754L576.769 286.545C558.1 297.215 539.207 303.09 523.837 304.073C508.247 305.07 497.33 301.032 492.902 293.285L487.692 296.262ZM579.746 291.754C599.033 280.73 614.437 266.854 623.7 253.201C632.84 239.73 636.544 225.565 630.348 214.724L625.139 217.702C629.567 225.449 627.506 236.905 618.735 249.832C610.088 262.577 595.437 275.875 576.769 286.545L579.746 291.754ZM630.348 214.724C626.225 207.511 618.554 203.326 609.244 201.647C599.928 199.967 588.632 200.715 576.55 203.652L577.967 209.482C589.514 206.675 599.928 206.064 608.18 207.552C616.438 209.041 622.195 212.552 625.139 217.702L630.348 214.724ZM591.964 159.66C594.907 164.81 595.01 171.552 592.102 179.424C589.196 187.289 583.385 195.952 575.106 204.477L579.411 208.657C588.073 199.736 594.45 190.383 597.73 181.503C601.009 172.629 601.296 163.896 597.173 156.682L591.964 159.66ZM547.825 150.748C558.678 148.432 568.391 148.123 576.082 149.719C583.77 151.315 589.15 154.736 591.964 159.66L597.173 156.682C593.234 149.79 586.049 145.66 577.301 143.844C568.556 142.029 557.961 142.45 546.573 144.88L547.825 150.748ZM559.71 103.23C562.525 108.154 562.742 114.526 560.215 121.96C557.688 129.396 552.492 137.609 544.989 145.785L549.409 149.842C557.283 141.263 563.022 132.347 565.896 123.891C568.772 115.431 568.859 107.145 564.919 100.253L559.71 103.23ZM512.538 95.0104C524.085 92.2038 534.499 91.5926 542.751 93.0806C551.01 94.5698 556.767 98.0801 559.71 103.23L564.919 100.253C560.796 93.0392 553.126 88.8547 543.816 87.1758C534.499 85.4958 523.204 86.2434 511.121 89.1802L512.538 95.0104ZM526.535 45.1882C529.479 50.3382 529.581 57.0803 526.673 64.952C523.768 72.8176 517.956 81.4803 509.677 90.0053L513.982 94.1853C522.644 85.2649 529.021 75.9115 532.302 67.0313C535.58 58.1574 535.867 49.4242 531.744 42.2108L526.535 45.1882ZM442.668 51.9281C461.336 41.2579 480.23 35.3825 495.6 34.3997C511.19 33.4029 522.107 37.4407 526.535 45.1882L531.744 42.2108C525.548 31.3704 511.463 27.3732 495.217 28.412C478.752 29.4647 458.977 35.6952 439.691 46.7189L442.668 51.9281ZM394.298 120.771C389.87 113.024 391.931 101.568 400.702 88.6409C409.349 75.8961 424 62.5982 442.668 51.9281L439.691 46.7189C420.404 57.7427 405 71.6191 395.737 85.2722C386.597 98.7431 382.893 112.908 389.089 123.749L394.298 120.771ZM441.47 128.991C429.923 131.798 419.509 132.409 411.257 130.921C402.998 129.432 397.241 125.921 394.298 120.771L389.089 123.749C393.212 130.962 400.882 135.147 410.192 136.826C419.509 138.506 430.804 137.758 442.887 134.821L441.47 128.991ZM427.473 178.813C424.529 173.663 424.426 166.921 427.335 159.049C430.24 151.184 436.052 142.521 444.33 133.996L440.026 129.816C431.364 138.736 424.987 148.09 421.706 156.97C418.428 165.844 418.141 174.577 422.264 181.791L427.473 178.813ZM471.612 187.725C460.759 190.041 451.045 190.35 443.355 188.754C435.667 187.158 430.287 183.737 427.473 178.813L422.264 181.791C426.203 188.683 433.387 192.813 442.135 194.629C450.881 196.444 461.475 196.023 472.864 193.593L471.612 187.725ZM459.726 235.243C456.912 230.319 456.694 223.947 459.221 216.513C461.749 209.077 466.945 200.864 474.448 192.688L470.027 188.631C462.154 197.21 456.415 206.126 453.54 214.582C450.665 223.042 450.578 231.328 454.517 238.22L459.726 235.243ZM506.898 243.463C495.351 246.269 484.938 246.88 476.686 245.392C468.427 243.903 462.67 240.393 459.726 235.243L454.517 238.22C458.64 245.434 466.311 249.618 475.621 251.297C484.937 252.977 496.233 252.23 508.315 249.293L506.898 243.463Z" fill="black" mask="url(#path-1-inside-1)"/>
<path d="M299.075 501.791L298.986 501.767L298.894 501.753L66.9507 468.614C31.0504 458.775 9.89255 421.714 19.686 385.79C29.4809 349.86 66.529 328.663 102.46 338.415L320.408 422.906L320.408 422.906L320.411 422.907L320.412 422.908L320.428 422.914C320.444 422.921 320.469 422.931 320.504 422.945C320.573 422.974 320.679 423.018 320.819 423.079C321.099 423.2 321.513 423.384 322.041 423.633C323.096 424.133 324.6 424.891 326.376 425.922C329.935 427.985 334.558 431.122 338.849 435.42C347.398 443.983 354.608 457.1 349.535 475.71C346.985 485.063 342.567 491.295 337.438 495.431C332.293 499.578 326.345 501.687 320.646 502.64C314.944 503.594 309.539 503.382 305.547 502.926C303.555 502.699 301.924 502.412 300.797 502.183C300.233 502.068 299.796 501.969 299.504 501.898C299.357 501.863 299.247 501.835 299.175 501.817C299.139 501.808 299.112 501.801 299.096 501.796L299.079 501.792L299.076 501.791L299.075 501.791L299.075 501.791Z" fill="#5D57F4" stroke="black" stroke-width="3"/>
<mask id="path-4-inside-2" fill="white">
<path fill-rule="evenodd" clip-rule="evenodd" d="M142.091 598.513C130.549 596.598 119.932 589.697 113.673 578.747C102.627 559.422 109.339 534.8 128.665 523.754C147.991 512.708 172.612 519.42 183.658 538.746C189.917 549.696 190.474 562.346 186.267 573.263C197.809 575.179 208.426 582.079 214.685 593.029C225.731 612.355 219.019 636.976 199.693 648.022C180.367 659.068 155.746 652.356 144.7 633.031C138.441 622.081 137.883 609.431 142.091 598.513Z"/>
</mask>
<path fill-rule="evenodd" clip-rule="evenodd" d="M142.091 598.513C130.549 596.598 119.932 589.697 113.673 578.747C102.627 559.422 109.339 534.8 128.665 523.754C147.991 512.708 172.612 519.42 183.658 538.746C189.917 549.696 190.474 562.346 186.267 573.263C197.809 575.179 208.426 582.079 214.685 593.029C225.731 612.355 219.019 636.976 199.693 648.022C180.367 659.068 155.746 652.356 144.7 633.031C138.441 622.081 137.883 609.431 142.091 598.513Z" fill="#0FA958"/>
<path d="M142.091 598.513L144.89 599.592L146.214 596.156L142.582 595.554L142.091 598.513ZM186.267 573.263L183.468 572.185L182.144 575.62L185.776 576.223L186.267 573.263ZM142.582 595.554C131.891 593.78 122.07 587.393 116.278 577.259L111.069 580.236C117.794 592.002 129.206 599.416 141.6 601.473L142.582 595.554ZM116.278 577.259C106.054 559.371 112.266 536.583 130.154 526.359L127.176 521.15C106.412 533.018 99.2003 559.472 111.069 580.236L116.278 577.259ZM130.154 526.359C148.041 516.135 170.829 522.347 181.053 540.235L186.262 537.257C174.394 516.493 147.94 509.282 127.176 521.15L130.154 526.359ZM181.053 540.235C186.846 550.369 187.365 562.073 183.468 572.185L189.066 574.342C193.584 562.619 192.988 549.023 186.262 537.257L181.053 540.235ZM185.776 576.223C196.467 577.997 206.288 584.384 212.08 594.518L217.289 591.54C210.564 579.774 199.152 572.361 186.758 570.304L185.776 576.223ZM212.08 594.518C222.304 612.405 216.091 635.194 198.204 645.418L201.182 650.627C221.946 638.759 229.157 612.305 217.289 591.54L212.08 594.518ZM198.204 645.418C180.317 655.642 157.528 649.429 147.304 631.542L142.095 634.519C153.963 655.283 180.417 662.495 201.182 650.627L198.204 645.418ZM147.304 631.542C141.512 621.408 140.993 609.704 144.89 599.592L139.291 597.434C134.774 609.157 135.37 622.753 142.095 634.519L147.304 631.542Z" fill="black" mask="url(#path-4-inside-2)"/>
<mask id="path-6-inside-3" fill="white">
<path fill-rule="evenodd" clip-rule="evenodd" d="M347.658 371.132L398.323 185.28L212.471 134.615L161.806 320.467L347.658 371.132ZM329.122 338.703L365.894 203.816L231.007 167.044L194.235 301.931L329.122 338.703Z"/>
</mask>
<path fill-rule="evenodd" clip-rule="evenodd" d="M347.658 371.132L398.323 185.28L212.471 134.615L161.806 320.467L347.658 371.132ZM329.122 338.703L365.894 203.816L231.007 167.044L194.235 301.931L329.122 338.703Z" fill="#FFC700"/>
<path d="M398.323 185.28L401.218 186.069L402.007 183.175L399.112 182.386L398.323 185.28ZM347.658 371.132L346.869 374.027L349.763 374.816L350.552 371.921L347.658 371.132ZM212.471 134.615L213.26 131.721L210.366 130.932L209.577 133.826L212.471 134.615ZM161.806 320.467L158.912 319.678L158.122 322.572L161.017 323.361L161.806 320.467ZM365.894 203.816L368.788 204.605L369.577 201.711L366.683 200.922L365.894 203.816ZM329.122 338.703L328.333 341.597L331.228 342.386L332.017 339.492L329.122 338.703ZM231.007 167.044L231.796 164.15L228.901 163.361L228.112 166.255L231.007 167.044ZM194.235 301.931L191.341 301.142L190.552 304.037L193.446 304.826L194.235 301.931ZM395.429 184.491L344.764 370.343L350.552 371.921L401.218 186.069L395.429 184.491ZM211.682 137.509L397.534 188.175L399.112 182.386L213.26 131.721L211.682 137.509ZM164.7 321.256L215.366 135.404L209.577 133.826L158.912 319.678L164.7 321.256ZM348.447 368.238L162.595 317.573L161.017 323.361L346.869 374.027L348.447 368.238ZM363 203.027L326.228 337.914L332.017 339.492L368.788 204.605L363 203.027ZM230.218 169.939L365.105 206.71L366.683 200.922L231.796 164.15L230.218 169.939ZM197.129 302.72L233.901 167.833L228.112 166.255L191.341 301.142L197.129 302.72ZM329.911 335.809L195.024 299.037L193.446 304.826L328.333 341.597L329.911 335.809Z" fill="black" mask="url(#path-6-inside-3)"/>
<mask id="path-8-inside-4" fill="white">
<path fill-rule="evenodd" clip-rule="evenodd" d="M311.575 308.003L335.194 221.363L248.554 197.744L224.935 284.384L311.575 308.003ZM290.568 271.25L298.441 242.37L269.561 234.497L261.688 263.377L290.568 271.25Z"/>
</mask>
<path fill-rule="evenodd" clip-rule="evenodd" d="M311.575 308.003L335.194 221.363L248.554 197.744L224.935 284.384L311.575 308.003ZM290.568 271.25L298.441 242.37L269.561 234.497L261.688 263.377L290.568 271.25Z" fill="#FFC700"/>
<path d="M335.194 221.363L338.089 222.152L338.878 219.258L335.983 218.469L335.194 221.363ZM311.575 308.003L310.786 310.898L313.681 311.687L314.47 308.792L311.575 308.003ZM248.554 197.744L249.343 194.85L246.449 194.061L245.66 196.955L248.554 197.744ZM224.935 284.384L222.041 283.595L221.251 286.49L224.146 287.279L224.935 284.384ZM298.441 242.37L301.336 243.159L302.125 240.265L299.23 239.476L298.441 242.37ZM290.568 271.25L289.779 274.145L292.673 274.934L293.463 272.039L290.568 271.25ZM269.561 234.497L270.35 231.603L267.456 230.814L266.667 233.708L269.561 234.497ZM261.688 263.377L258.794 262.588L258.005 265.482L260.899 266.271L261.688 263.377ZM332.3 220.574L308.681 307.214L314.47 308.792L338.089 222.152L332.3 220.574ZM247.765 200.638L334.405 224.257L335.983 218.469L249.343 194.85L247.765 200.638ZM227.829 285.173L251.448 198.533L245.66 196.955L222.041 283.595L227.829 285.173ZM312.364 305.109L225.724 281.49L224.146 287.279L310.786 310.898L312.364 305.109ZM295.547 241.581L287.674 270.461L293.463 272.039L301.336 243.159L295.547 241.581ZM268.772 237.391L297.652 245.264L299.23 239.476L270.35 231.603L268.772 237.391ZM264.582 264.166L272.455 235.286L266.667 233.708L258.794 262.588L264.582 264.166ZM291.357 268.356L262.477 260.483L260.899 266.271L289.779 274.145L291.357 268.356Z" fill="black" mask="url(#path-8-inside-4)"/>
<circle cx="447.352" cy="396.832" r="70.2418" transform="rotate(150.249 447.352 396.832)" fill="#C7B9FF" stroke="black" stroke-width="3"/>
<rect x="369.046" y="68.9701" width="78.1962" height="77.0839" transform="rotate(150.249 369.046 68.9701)" fill="#FF8577" stroke="black" stroke-width="3"/>
</svg>
