<svg xmlns="http://www.w3.org/2000/svg" viewBox="0 0 330 90" fill="none">
<path d="M132.313 59.7252H140.977L149.809 30.9926H141.366L136.136 51.3782L130.559 30.9926H123.25L117.621 51.3782L112.443 30.9926H104L112.78 59.7252H121.444L126.905 41.3187L132.313 59.7252ZM150.261 45.4409C150.261 54.0648 156.278 60.443 165.74 60.443C173.06 60.443 176.998 56.1567 178.122 54.1263L172.997 50.3322C172.157 51.5422 169.847 53.8495 165.845 53.8495C161.508 53.8495 158.358 51.1013 158.19 47.2559H178.91C178.962 46.7022 178.962 46.1587 178.962 45.605C178.962 36.2121 173.785 30.2748 164.669 30.2748C156.278 30.2748 150.261 36.7555 150.261 45.4409ZM158.421 42.3031C158.757 39.0115 161.12 36.4787 164.785 36.4787C168.334 36.4787 170.918 38.7859 171.086 42.3031H158.421ZM181.892 59.7252H189.212V56.7617C190 57.6948 192.93 60.443 197.939 60.443C206.383 60.443 212.348 54.2391 212.348 45.3897C212.348 36.4889 206.834 30.2851 198.391 30.2851C193.329 30.2851 190.399 33.0332 189.664 34.0176V20H181.903V59.7252H181.892ZM189.433 45.4409C189.433 40.0574 192.699 36.9811 196.973 36.9811C201.478 36.9811 204.513 40.4471 204.513 45.4409C204.513 50.5476 201.363 53.7367 196.973 53.7367C192.247 53.7367 189.433 49.9938 189.433 45.4409ZM215.372 70H223.133V56.7514C223.868 57.6846 226.788 60.4327 231.86 60.4327C240.304 60.4327 245.817 54.2289 245.817 45.3281C245.817 36.5402 239.852 30.2748 231.409 30.2748C226.399 30.2748 223.469 33.023 222.682 34.0074V30.9824H215.362V70H215.372ZM222.913 45.2769C222.913 40.7137 225.727 36.9811 230.453 36.9811C234.843 36.9811 237.993 40.1702 237.993 45.2769C237.993 50.281 234.958 53.7367 230.453 53.7367C226.179 53.7367 222.913 50.6604 222.913 45.2769ZM247.224 50.8244C247.224 56.8642 252.286 60.443 258.251 60.443C261.633 60.443 263.88 59.4586 265.403 57.8589L265.907 59.7252H272.775V41.534C272.775 35.1046 269.961 30.2748 260.509 30.2748C256.004 30.2748 251.562 31.9258 248.915 33.6792L251.845 38.8474C254.04 37.7502 256.739 36.8171 259.669 36.8171C263.103 36.8171 265.014 38.5193 265.014 41.0521V42.9184C263.943 42.2006 261.633 41.329 258.65 41.329C251.782 41.3187 247.224 45.1641 247.224 50.8244ZM254.985 50.5988C254.985 48.2404 257.065 46.5894 260.047 46.5894C263.03 46.5894 265.172 48.0763 265.172 50.5988C265.172 53.0189 263.03 54.557 260.11 54.557C257.191 54.557 254.985 52.9676 254.985 50.5988ZM291.626 53.7367C286.732 53.7367 283.246 50.2707 283.246 45.3897C283.246 40.7752 286.344 36.9811 291.353 36.9811C294.672 36.9811 296.93 38.5705 298.221 39.7293L300.416 33.3511C298.505 31.9258 295.459 30.2748 291.133 30.2748C282.185 30.2748 275.485 36.7043 275.485 45.4409C275.485 54.1776 282.017 60.443 291.185 60.443C295.459 60.443 298.673 58.6895 300.353 57.3667L298.274 51.1628C296.972 52.1985 294.609 53.7367 291.626 53.7367ZM303.273 59.7252H311.034V44.8872L320.884 59.7252H330L318.858 44.0053L329.212 30.9824H320.485L311.034 43.0722V20H303.273V59.7252Z" fill="#F5FAFA"/>
<path d="M73.8139 66.1164L41.9016 84V70.0744L61.7854 59.2364L73.8139 66.1164ZM76 64.1581V26.7641L64.327 33.4471V57.4854L76 64.1581ZM7.18606 66.1164L39.0984 84V70.0744L19.2042 59.2364L7.18606 66.1164ZM5 64.1581V26.7641L16.6729 33.4471V57.4854L5 64.1581ZM6.37021 24.3395L39.0984 6V19.4594L18.1268 30.8879L17.9595 30.9811L6.37021 24.3395ZM74.6298 24.3395L41.9016 6V19.4594L62.8732 30.8775L63.0405 30.9708L74.6298 24.3395Z" fill="#fff"/>
<path d="M39.6 67L20 56.3143V35.1604L39.6 46.3741V67ZM42.4 67L62 56.3247V35.1604L42.4 46.3741V67ZM21.3269 32.7168L41 22L60.6731 32.7168L41 43.9719L21.3269 32.7168Z" fill="#fff"/>
</svg>