<svg width="30" height="22" viewBox="0 0 30 22" fill="none" xmlns="http://www.w3.org/2000/svg">
<path d="M29.3819 3.28675C29.0362 2.00153 28.0229 0.988405 26.7378 0.642335C24.3902 0 14.9997 0 14.9997 0C14.9997 0 5.60945 0 3.26185 0.617982C2.00153 0.963686 0.963503 2.00171 0.617799 3.28675C0 5.63416 0 10.5024 0 10.5024C0 10.5024 0 15.3952 0.617799 17.718C0.963869 19.0031 1.97681 20.0162 3.26203 20.3623C5.63417 21.0048 15 21.0048 15 21.0048C15 21.0048 24.3902 21.0048 26.7378 20.3868C28.0231 20.0409 29.0362 19.0278 29.3823 17.7428C29.9999 15.3952 29.9999 10.5271 29.9999 10.5271C29.9999 10.5271 30.0246 5.63416 29.3819 3.28675ZM12.0099 14.9998V6.00495L19.8186 10.5024L12.0099 14.9998Z" fill="black"/>
</svg>
