<svg width="628" height="561" viewBox="0 0 628 561" fill="none" xmlns="http://www.w3.org/2000/svg">
<path d="M201.028 166.442C224.201 207.105 238.551 247.616 243.06 280.205C245.315 296.504 245.097 310.743 242.348 321.999C239.601 333.252 234.365 341.386 226.681 345.764C218.998 350.143 209.331 350.502 198.249 347.131C187.164 343.759 174.803 336.689 161.929 326.441C136.189 305.952 108.648 272.957 85.4753 232.294C40.0871 152.65 52.8126 81.0593 60.134 53.5191C87.5601 61.2572 155.64 86.7982 201.028 166.442Z" fill="#FFC700" stroke="#5D57F4" stroke-width="3"/>
<line x1="61.0571" y1="54.1291" x2="226.81" y2="344.981" stroke="#5D57F4" stroke-width="3"/>
<path d="M223.227 284.269L214.178 322.937L176.298 311.013" stroke="#5D57F4" stroke-width="3"/>
<path d="M205.059 231.318L192.515 284.922L140.002 268.393" stroke="#5D57F4" stroke-width="3"/>
<path d="M111.44 93.5213L103.27 128.434L69.0685 117.669" stroke="#5D57F4" stroke-width="3"/>
<path d="M138.217 114.028L125.672 167.632L73.1597 151.103" stroke="#5D57F4" stroke-width="3"/>
<path d="M160.498 153.125L147.953 206.729L95.4404 190.2" stroke="#5D57F4" stroke-width="3"/>
<path d="M182.778 192.221L170.234 245.826L117.721 229.297" stroke="#5D57F4" stroke-width="3"/>
<path d="M499.396 213.53C464.466 244.681 427.843 267.171 396.913 278.383C381.444 283.991 367.473 286.75 355.891 286.412C344.313 286.073 335.265 282.65 329.379 276.05C323.493 269.45 321.124 260.071 322.108 248.53C323.092 236.985 327.425 223.42 334.76 208.691C349.425 179.241 375.944 145.42 410.873 114.269C479.288 53.2552 551.958 50.756 580.42 52.1672C578.578 80.6044 567.811 152.516 499.396 213.53Z" fill="#FFC700" stroke="#5D57F4" stroke-width="3"/>
<line x1="580.016" y1="53.1974" x2="330.172" y2="276.013" stroke="#5D57F4" stroke-width="3"/>
<path d="M388.799 259.836L349.094 259.058L352.847 219.523" stroke="#5D57F4" stroke-width="3"/>
<path d="M435.265 225.261L380.873 233.76L376.477 178.883" stroke="#5D57F4" stroke-width="3"/>
<path d="M548.924 106.598L513.498 112.133L510.634 76.3919" stroke="#5D57F4" stroke-width="3"/>
<path d="M536.019 135.407L481.626 143.906L477.23 89.0293" stroke="#5D57F4" stroke-width="3"/>
<path d="M502.434 165.358L448.041 173.857L443.645 118.98" stroke="#5D57F4" stroke-width="3"/>
<path d="M468.85 195.31L414.457 203.809L410.061 148.932" stroke="#5D57F4" stroke-width="3"/>
<path d="M258.017 486.724C229.648 466.806 207.252 444.21 193.955 423.833C187.304 413.64 182.974 404.069 181.27 395.715C179.568 387.366 180.512 380.375 184.198 375.124C187.885 369.874 194.14 366.611 202.571 365.377C211.007 364.142 221.48 364.965 233.326 367.759C257.008 373.345 285.866 386.737 314.235 406.655C369.401 445.388 383.642 496.908 387.536 517.892C366.477 521.356 313.183 525.457 258.017 486.724Z" fill="#FFC700" stroke="#5D57F4" stroke-width="3"/>
<line x1="386.954" y1="518.41" x2="183.819" y2="375.785" stroke="#5D57F4" stroke-width="3"/>
<path d="M205.645 415.048L199.485 386.255L228.658 382.272" stroke="#5D57F4" stroke-width="3"/>
<path d="M234.574 444.811L226.034 404.897L266.476 399.374" stroke="#5D57F4" stroke-width="3"/>
<path d="M340.933 507.61L335.371 481.614L361.711 478.017" stroke="#5D57F4" stroke-width="3"/>
<path d="M316.491 502.326L307.951 462.412L348.394 456.89" stroke="#5D57F4" stroke-width="3"/>
<path d="M289.186 483.155L280.646 443.24L321.088 437.718" stroke="#5D57F4" stroke-width="3"/>
<path d="M261.88 463.983L253.34 424.069L293.782 418.546" stroke="#5D57F4" stroke-width="3"/>
<rect x="77" y="186" width="472" height="229" rx="7" fill="#5D57F4"/>
<path d="M134.44 231.28V235.2H130.56L129.64 241.32H133.04V245.24H129L128.04 251H123.96L124.88 245.24H121.08L120.16 251H116.04L117 245.24H113.68V241.32H117.64L118.6 235.2H115.08V231.28H119.32L120.2 225.92H124.28L123.4 231.28H127.16L128.08 225.92H132.16L131.28 231.28H134.44ZM125.52 241.32L126.48 235.2H122.72L121.72 241.32H125.52ZM147.629 251H141.429V231.44L135.469 232.12V226.92L147.629 225.52V251ZM169.788 242V251H166.388V225.92H174.908C178.454 225.92 180.988 226.533 182.508 227.76C184.054 228.96 184.828 230.96 184.828 233.76C184.828 235.947 184.334 237.693 183.348 239C182.388 240.28 180.921 241.147 178.948 241.6L185.508 251H181.428L175.348 242H169.788ZM181.388 233.76C181.388 232.053 180.894 230.84 179.908 230.12C178.921 229.373 177.254 229 174.908 229H169.788V239H174.908C177.201 239 178.854 238.587 179.868 237.76C180.881 236.933 181.388 235.6 181.388 233.76ZM203.918 247.16V249.92C203.224 250.293 202.198 250.627 200.838 250.92C199.504 251.187 198.144 251.32 196.758 251.32C193.664 251.32 191.451 250.52 190.118 248.92C188.784 247.32 188.118 244.68 188.118 241C188.118 237.453 188.811 234.88 190.198 233.28C191.584 231.653 193.798 230.84 196.838 230.84C199.664 230.84 201.691 231.48 202.918 232.76C204.144 234.013 204.758 236.12 204.758 239.08C204.758 239.613 204.744 240.107 204.718 240.56C204.691 241.013 204.638 241.56 204.558 242.2H191.438C191.464 244.387 191.904 245.947 192.758 246.88C193.638 247.813 195.144 248.28 197.278 248.28C198.424 248.28 199.624 248.173 200.878 247.96C202.131 247.747 203.144 247.48 203.918 247.16ZM201.758 238.64C201.731 236.88 201.344 235.64 200.598 234.92C199.851 234.173 198.598 233.8 196.838 233.8C194.864 233.8 193.464 234.227 192.638 235.08C191.838 235.907 191.438 237.373 191.438 239.48H201.718C201.718 239.427 201.718 239.307 201.718 239.12C201.744 238.907 201.758 238.747 201.758 238.64ZM212.279 257.08H208.999V231.24H211.839L212.039 233H212.159C212.986 232.307 213.973 231.773 215.119 231.4C216.266 231.027 217.493 230.84 218.799 230.84C221.493 230.84 223.413 231.64 224.559 233.24C225.733 234.84 226.319 237.453 226.319 241.08C226.319 244.707 225.613 247.32 224.199 248.92C222.786 250.52 220.426 251.32 217.119 251.32C216.133 251.32 215.226 251.253 214.399 251.12C213.599 250.987 212.893 250.787 212.279 250.52V257.08ZM223.039 241.08C223.039 238.36 222.653 236.467 221.879 235.4C221.133 234.333 219.719 233.8 217.639 233.8C216.653 233.8 215.706 233.947 214.799 234.24C213.919 234.507 213.079 234.907 212.279 235.44V247.48C212.946 247.747 213.626 247.947 214.319 248.08C215.039 248.213 215.839 248.28 216.719 248.28C219.199 248.28 220.866 247.773 221.719 246.76C222.599 245.72 223.039 243.827 223.039 241.08ZM233.92 224.4V251H230.64V224.4H233.92ZM243.675 251.32C241.648 251.32 240.155 250.84 239.195 249.88C238.261 248.893 237.795 247.347 237.795 245.24C237.795 243.107 238.368 241.6 239.515 240.72C240.661 239.813 242.608 239.36 245.355 239.36C246.261 239.36 247.155 239.4 248.035 239.48C248.915 239.56 249.741 239.68 250.515 239.84V237.92C250.515 236.453 250.141 235.4 249.395 234.76C248.648 234.12 247.448 233.8 245.795 233.8C244.568 233.8 243.488 233.853 242.555 233.96C241.621 234.04 240.688 234.187 239.755 234.4V231.56C240.821 231.293 241.901 231.107 242.995 231C244.115 230.893 245.381 230.84 246.795 230.84C249.168 230.84 250.928 231.4 252.075 232.52C253.221 233.613 253.795 235.32 253.795 237.64V251H250.795L250.635 249.16H250.555C249.755 249.8 248.715 250.32 247.435 250.72C246.181 251.12 244.928 251.32 243.675 251.32ZM245.715 242.04C243.901 242.04 242.635 242.267 241.915 242.72C241.221 243.147 240.875 243.92 240.875 245.04C240.875 246.213 241.168 247.067 241.755 247.6C242.341 248.107 243.301 248.36 244.635 248.36C245.675 248.36 246.741 248.2 247.835 247.88C248.928 247.56 249.821 247.16 250.515 246.68V242.44C249.635 242.307 248.808 242.213 248.035 242.16C247.288 242.08 246.515 242.04 245.715 242.04ZM272.721 247.08V249.84C272.055 250.267 271.055 250.627 269.721 250.92C268.415 251.187 267.041 251.32 265.601 251.32C262.801 251.32 260.828 250.56 259.681 249.04C258.561 247.52 258.001 244.867 258.001 241.08C258.001 237.373 258.735 234.747 260.201 233.2C261.668 231.627 264.161 230.84 267.681 230.84C268.455 230.84 269.148 230.867 269.761 230.92C270.401 230.947 271.215 231.027 272.201 231.16V234.08C271.215 233.947 270.401 233.867 269.761 233.84C269.148 233.813 268.455 233.8 267.681 233.8C265.175 233.8 263.481 234.32 262.601 235.36C261.721 236.373 261.281 238.28 261.281 241.08C261.281 243.88 261.628 245.787 262.321 246.8C263.015 247.787 264.348 248.28 266.321 248.28C267.415 248.28 268.548 248.173 269.721 247.96C270.895 247.72 271.895 247.427 272.721 247.08ZM291.183 247.16V249.92C290.49 250.293 289.463 250.627 288.103 250.92C286.77 251.187 285.41 251.32 284.023 251.32C280.93 251.32 278.716 250.52 277.383 248.92C276.05 247.32 275.383 244.68 275.383 241C275.383 237.453 276.076 234.88 277.463 233.28C278.85 231.653 281.063 230.84 284.103 230.84C286.93 230.84 288.956 231.48 290.183 232.76C291.41 234.013 292.023 236.12 292.023 239.08C292.023 239.613 292.01 240.107 291.983 240.56C291.956 241.013 291.903 241.56 291.823 242.2H278.703C278.73 244.387 279.17 245.947 280.023 246.88C280.903 247.813 282.41 248.28 284.543 248.28C285.69 248.28 286.89 248.173 288.143 247.96C289.396 247.747 290.41 247.48 291.183 247.16ZM289.023 238.64C288.996 236.88 288.61 235.64 287.863 234.92C287.116 234.173 285.863 233.8 284.103 233.8C282.13 233.8 280.73 234.227 279.903 235.08C279.103 235.907 278.703 237.373 278.703 239.48H288.983C288.983 239.427 288.983 239.307 288.983 239.12C289.01 238.907 289.023 238.747 289.023 238.64ZM312.861 230.84C315.554 230.84 317.474 231.64 318.621 233.24C319.794 234.813 320.381 237.4 320.381 241C320.381 244.68 319.661 247.32 318.221 248.92C316.781 250.52 314.368 251.32 310.981 251.32C309.461 251.32 308.034 251.227 306.701 251.04C305.368 250.88 304.154 250.627 303.061 250.28V224.4H306.341V232.6C307.274 232.04 308.301 231.613 309.421 231.32C310.541 231 311.688 230.84 312.861 230.84ZM317.101 241C317.101 238.307 316.714 236.44 315.941 235.4C315.194 234.333 313.781 233.8 311.701 233.8C310.741 233.8 309.794 233.933 308.861 234.2C307.928 234.44 307.088 234.787 306.341 235.24V247.76C306.928 247.92 307.594 248.053 308.341 248.16C309.088 248.24 309.901 248.28 310.781 248.28C313.261 248.28 314.928 247.76 315.781 246.72C316.661 245.68 317.101 243.773 317.101 241ZM331.103 251.32C328.916 251.32 327.276 250.773 326.183 249.68C325.089 248.587 324.543 246.947 324.543 244.76V231.24H327.823V244.36C327.823 245.72 328.169 246.707 328.863 247.32C329.556 247.933 330.649 248.24 332.143 248.24C333.049 248.24 333.956 248.133 334.863 247.92C335.796 247.68 336.729 247.32 337.663 246.84V231.24H340.943V251H337.943L337.783 249.36H337.703C336.316 250.08 335.116 250.587 334.103 250.88C333.089 251.173 332.089 251.32 331.103 251.32ZM349.626 227.8H346.106V224.4H349.626V227.8ZM349.506 251H346.226V231.24H349.506V251ZM358.061 224.4V251H354.781V224.4H358.061ZM376.415 224.4H379.695V251H376.855L376.615 249.16H376.535C375.762 249.88 374.815 250.427 373.695 250.8C372.602 251.147 371.335 251.32 369.895 251.32C367.202 251.32 365.269 250.52 364.095 248.92C362.949 247.32 362.375 244.707 362.375 241.08C362.375 237.453 363.082 234.84 364.495 233.24C365.909 231.64 368.269 230.84 371.575 230.84C372.509 230.84 373.375 230.92 374.175 231.08C375.002 231.213 375.749 231.413 376.415 231.68V224.4ZM371.975 233.8C369.495 233.8 367.815 234.32 366.935 235.36C366.082 236.4 365.655 238.307 365.655 241.08C365.655 243.773 366.029 245.653 366.775 246.72C367.549 247.76 368.975 248.28 371.055 248.28C372.042 248.28 372.989 248.16 373.895 247.92C374.802 247.653 375.642 247.267 376.415 246.76V234.6C375.775 234.333 375.095 234.133 374.375 234C373.655 233.867 372.855 233.8 371.975 233.8ZM398.612 233.8C396.905 233.8 395.719 234 395.052 234.4C394.412 234.8 394.092 235.613 394.092 236.84C394.092 237.48 394.239 237.973 394.532 238.32C394.852 238.64 395.345 238.853 396.012 238.96L401.092 239.72C402.692 239.96 403.812 240.467 404.452 241.24C405.092 241.987 405.412 243.173 405.412 244.8C405.412 247.093 404.865 248.76 403.772 249.8C402.679 250.813 400.865 251.32 398.332 251.32C396.812 251.32 395.399 251.24 394.092 251.08C392.785 250.92 391.705 250.707 390.852 250.44V247.36C391.705 247.627 392.745 247.853 393.972 248.04C395.225 248.2 396.505 248.28 397.812 248.28C399.465 248.28 400.599 248.04 401.212 247.56C401.825 247.08 402.132 246.227 402.132 245C402.132 244.227 401.959 243.667 401.612 243.32C401.265 242.947 400.639 242.693 399.732 242.56L394.652 241.8C393.372 241.613 392.412 241.12 391.772 240.32C391.159 239.52 390.839 238.36 390.812 236.84C390.812 234.76 391.425 233.24 392.652 232.28C393.905 231.32 395.825 230.84 398.412 230.84C399.479 230.84 400.439 230.867 401.292 230.92C402.172 230.973 403.092 231.08 404.052 231.24V234.16C403.359 234.053 402.545 233.973 401.612 233.92C400.679 233.84 399.679 233.8 398.612 233.8ZM423.19 247.08V249.84C422.523 250.267 421.523 250.627 420.19 250.92C418.883 251.187 417.51 251.32 416.07 251.32C413.27 251.32 411.297 250.56 410.15 249.04C409.03 247.52 408.47 244.867 408.47 241.08C408.47 237.373 409.203 234.747 410.67 233.2C412.137 231.627 414.63 230.84 418.15 230.84C418.923 230.84 419.617 230.867 420.23 230.92C420.87 230.947 421.683 231.027 422.67 231.16V234.08C421.683 233.947 420.87 233.867 420.23 233.84C419.617 233.813 418.923 233.8 418.15 233.8C415.643 233.8 413.95 234.32 413.07 235.36C412.19 236.373 411.75 238.28 411.75 241.08C411.75 243.88 412.097 245.787 412.79 246.8C413.483 247.787 414.817 248.28 416.79 248.28C417.883 248.28 419.017 248.173 420.19 247.96C421.363 247.72 422.363 247.427 423.19 247.08ZM430.248 251H426.968V231.24H429.968L430.128 232.92H430.288C431.328 232.307 432.368 231.853 433.408 231.56C434.448 231.24 435.475 231.08 436.488 231.08C436.915 231.08 437.195 231.08 437.328 231.08C437.488 231.08 437.608 231.093 437.688 231.12V234.28C437.501 234.227 437.261 234.2 436.968 234.2C436.701 234.173 436.275 234.16 435.688 234.16C434.728 234.16 433.781 234.28 432.848 234.52C431.941 234.733 431.075 235.067 430.248 235.52V251ZM444.47 227.8H440.95V224.4H444.47V227.8ZM444.35 251H441.07V231.24H444.35V251ZM452.904 257.08H449.624V231.24H452.464L452.664 233H452.784C453.611 232.307 454.598 231.773 455.744 231.4C456.891 231.027 458.118 230.84 459.424 230.84C462.118 230.84 464.038 231.64 465.184 233.24C466.358 234.84 466.944 237.453 466.944 241.08C466.944 244.707 466.238 247.32 464.824 248.92C463.411 250.52 461.051 251.32 457.744 251.32C456.758 251.32 455.851 251.253 455.024 251.12C454.224 250.987 453.518 250.787 452.904 250.52V257.08ZM463.664 241.08C463.664 238.36 463.278 236.467 462.504 235.4C461.758 234.333 460.344 233.8 458.264 233.8C457.278 233.8 456.331 233.947 455.424 234.24C454.544 234.507 453.704 234.907 452.904 235.44V247.48C453.571 247.747 454.251 247.947 454.944 248.08C455.664 248.213 456.464 248.28 457.344 248.28C459.824 248.28 461.491 247.773 462.344 246.76C463.224 245.72 463.664 243.827 463.664 241.08ZM482.67 247.92V250.68C482.243 250.867 481.656 251.013 480.91 251.12C480.19 251.253 479.496 251.32 478.83 251.32C476.43 251.32 474.71 250.787 473.67 249.72C472.656 248.653 472.15 246.813 472.15 244.2V234.04H469.19V231.24H472.19L472.71 226.44H475.43V231.24H482.47V234.04H475.43V244.08C475.43 245.707 475.723 246.813 476.31 247.4C476.923 247.987 477.99 248.28 479.51 248.28C479.99 248.28 480.536 248.24 481.15 248.16C481.79 248.08 482.296 248 482.67 247.92ZM492.713 233.8C491.007 233.8 489.82 234 489.153 234.4C488.513 234.8 488.193 235.613 488.193 236.84C488.193 237.48 488.34 237.973 488.633 238.32C488.953 238.64 489.447 238.853 490.113 238.96L495.193 239.72C496.793 239.96 497.913 240.467 498.553 241.24C499.193 241.987 499.513 243.173 499.513 244.8C499.513 247.093 498.967 248.76 497.873 249.8C496.78 250.813 494.967 251.32 492.433 251.32C490.913 251.32 489.5 251.24 488.193 251.08C486.887 250.92 485.807 250.707 484.953 250.44V247.36C485.807 247.627 486.847 247.853 488.073 248.04C489.327 248.2 490.607 248.28 491.913 248.28C493.567 248.28 494.7 248.04 495.313 247.56C495.927 247.08 496.233 246.227 496.233 245C496.233 244.227 496.06 243.667 495.713 243.32C495.367 242.947 494.74 242.693 493.833 242.56L488.753 241.8C487.473 241.613 486.513 241.12 485.873 240.32C485.26 239.52 484.94 238.36 484.913 236.84C484.913 234.76 485.527 233.24 486.753 232.28C488.007 231.32 489.927 230.84 492.513 230.84C493.58 230.84 494.54 230.867 495.393 230.92C496.273 230.973 497.193 231.08 498.153 231.24V234.16C497.46 234.053 496.647 233.973 495.713 233.92C494.78 233.84 493.78 233.8 492.713 233.8Z" fill="white"/>
<path d="M134.44 295.28V299.2H130.56L129.64 305.32H133.04V309.24H129L128.04 315H123.96L124.88 309.24H121.08L120.16 315H116.04L117 309.24H113.68V305.32H117.64L118.6 299.2H115.08V295.28H119.32L120.2 289.92H124.28L123.4 295.28H127.16L128.08 289.92H132.16L131.28 295.28H134.44ZM125.52 305.32L126.48 299.2H122.72L121.72 305.32H125.52ZM152.189 309.2V315H135.949V309.2L144.469 300.2C145.029 299.64 145.416 299.12 145.629 298.64C145.869 298.133 145.989 297.587 145.989 297C145.989 296.387 145.816 295.92 145.469 295.6C145.123 295.28 144.616 295.12 143.949 295.12C143.096 295.12 142.096 295.187 140.949 295.32C139.803 295.427 138.523 295.613 137.109 295.88V290.48C138.123 290.187 139.349 289.96 140.789 289.8C142.256 289.613 143.696 289.52 145.109 289.52C147.349 289.52 149.083 290.107 150.309 291.28C151.563 292.427 152.189 294.027 152.189 296.08C152.189 297.467 151.976 298.68 151.549 299.72C151.149 300.733 150.456 301.747 149.469 302.76L143.309 309.2H152.189ZM170.123 315H166.523L176.443 289.92H179.963L189.763 315H186.163L183.883 308.96H172.403L170.123 315ZM178.123 293.04C177.856 293.973 177.536 294.96 177.163 296C176.816 297.04 176.456 298.08 176.083 299.12L173.523 305.96H182.763L180.203 299.12C179.67 297.653 179.243 296.467 178.923 295.56C178.63 294.653 178.363 293.813 178.123 293.04ZM205.595 288.4H208.875V315H206.035L205.795 313.16H205.715C204.942 313.88 203.995 314.427 202.875 314.8C201.782 315.147 200.515 315.32 199.075 315.32C196.382 315.32 194.448 314.52 193.275 312.92C192.128 311.32 191.555 308.707 191.555 305.08C191.555 301.453 192.262 298.84 193.675 297.24C195.088 295.64 197.448 294.84 200.755 294.84C201.688 294.84 202.555 294.92 203.355 295.08C204.182 295.213 204.928 295.413 205.595 295.68V288.4ZM201.155 297.8C198.675 297.8 196.995 298.32 196.115 299.36C195.262 300.4 194.835 302.307 194.835 305.08C194.835 307.773 195.208 309.653 195.955 310.72C196.728 311.76 198.155 312.28 200.235 312.28C201.222 312.28 202.168 312.16 203.075 311.92C203.982 311.653 204.822 311.267 205.595 310.76V298.6C204.955 298.333 204.275 298.133 203.555 298C202.835 297.867 202.035 297.8 201.155 297.8ZM227.236 288.4H230.516V315H227.676L227.436 313.16H227.356C226.582 313.88 225.636 314.427 224.516 314.8C223.422 315.147 222.156 315.32 220.716 315.32C218.022 315.32 216.089 314.52 214.916 312.92C213.769 311.32 213.196 308.707 213.196 305.08C213.196 301.453 213.902 298.84 215.316 297.24C216.729 295.64 219.089 294.84 222.396 294.84C223.329 294.84 224.196 294.92 224.996 295.08C225.822 295.213 226.569 295.413 227.236 295.68V288.4ZM222.796 297.8C220.316 297.8 218.636 298.32 217.756 299.36C216.902 300.4 216.476 302.307 216.476 305.08C216.476 307.773 216.849 309.653 217.596 310.72C218.369 311.76 219.796 312.28 221.876 312.28C222.862 312.28 223.809 312.16 224.716 311.92C225.622 311.653 226.462 311.267 227.236 310.76V298.6C226.596 298.333 225.916 298.133 225.196 298C224.476 297.867 223.676 297.8 222.796 297.8ZM253.312 286.72L244.752 318.2H240.472L249.032 286.72H253.312ZM264.062 297.28L266.542 300.44L263.222 302.8L261.102 299.48L258.862 302.8L255.622 300.36L258.142 297.32L254.302 296.2L255.622 292.4L259.222 293.88L259.022 289.92H263.062L262.862 293.84L266.622 292.44L267.862 296.28L264.062 297.28ZM279.336 297.28L281.816 300.44L278.496 302.8L276.376 299.48L274.136 302.8L270.896 300.36L273.416 297.32L269.576 296.2L270.896 292.4L274.496 293.88L274.296 289.92H278.336L278.136 293.84L281.896 292.44L283.136 296.28L279.336 297.28ZM297.4 315H291.4V295.24H296.6L296.84 297.32H296.96C297.813 296.44 298.733 295.813 299.72 295.44C300.733 295.04 301.946 294.84 303.36 294.84C305.6 294.84 307.293 295.387 308.44 296.48C309.586 297.573 310.16 299.187 310.16 301.32V315H304.16V302.12C304.16 301.507 303.906 301.04 303.4 300.72C302.92 300.4 302.2 300.24 301.24 300.24C300.52 300.24 299.826 300.32 299.16 300.48C298.493 300.64 297.906 300.867 297.4 301.16V315ZM318.309 315.4C316.282 315.4 314.789 314.893 313.829 313.88C312.896 312.867 312.429 311.267 312.429 309.08C312.429 306.84 312.989 305.267 314.109 304.36C315.256 303.453 317.216 303 319.989 303C320.629 303 321.282 303.04 321.949 303.12C322.642 303.173 323.242 303.253 323.749 303.36V301.92C323.749 301.28 323.469 300.813 322.909 300.52C322.376 300.2 321.549 300.04 320.429 300.04C319.149 300.04 318.002 300.08 316.989 300.16C316.002 300.213 315.096 300.32 314.269 300.48V295.56C315.256 295.32 316.402 295.147 317.709 295.04C319.016 294.907 320.536 294.84 322.269 294.84C324.722 294.84 326.576 295.387 327.829 296.48C329.109 297.573 329.749 299.187 329.749 301.32V315H324.149L323.949 313.32H323.829C323.002 313.96 322.096 314.467 321.109 314.84C320.122 315.213 319.189 315.4 318.309 315.4ZM320.789 306.96C319.722 306.96 319.002 307.08 318.629 307.32C318.256 307.533 318.069 308 318.069 308.72C318.069 309.387 318.216 309.853 318.509 310.12C318.829 310.36 319.376 310.48 320.149 310.48C320.736 310.48 321.349 310.4 321.989 310.24C322.629 310.08 323.216 309.88 323.749 309.64V307.2C323.429 307.12 323.029 307.067 322.549 307.04C322.069 306.987 321.482 306.96 320.789 306.96ZM339.118 315H333.118V295.24H338.718L338.918 296.72H339.038C340.025 296.107 340.972 295.64 341.878 295.32C342.785 295 343.652 294.84 344.478 294.84C345.572 294.84 346.505 295.013 347.278 295.36C348.052 295.68 348.665 296.173 349.118 296.84H349.278C350.185 296.227 351.198 295.747 352.318 295.4C353.465 295.027 354.558 294.84 355.598 294.84C357.545 294.84 358.985 295.373 359.918 296.44C360.878 297.507 361.358 299.133 361.358 301.32V315H355.358V302.12C355.358 301.453 355.172 300.973 354.798 300.68C354.425 300.387 353.838 300.24 353.038 300.24C352.612 300.24 352.158 300.28 351.678 300.36C351.198 300.44 350.718 300.56 350.238 300.72V315H344.238V302.12C344.238 301.453 344.052 300.973 343.678 300.68C343.305 300.387 342.718 300.24 341.918 300.24C341.492 300.24 341.038 300.28 340.558 300.36C340.078 300.44 339.598 300.56 339.118 300.72V315ZM381.08 309.16V313.92C380.44 314.32 379.36 314.667 377.84 314.96C376.32 315.253 374.72 315.4 373.04 315.4C369.84 315.4 367.533 314.6 366.12 313C364.707 311.373 364 308.747 364 305.12C364 301.573 364.747 298.973 366.24 297.32C367.733 295.667 370.093 294.84 373.32 294.84C376.467 294.84 378.68 295.467 379.96 296.72C381.267 297.947 381.92 300.133 381.92 303.28C381.92 304.133 381.907 304.813 381.88 305.32C381.853 305.827 381.8 306.413 381.72 307.08H370.04C370.067 308.173 370.36 308.933 370.92 309.36C371.48 309.787 372.507 310 374 310C375.28 310 376.587 309.92 377.92 309.76C379.253 309.573 380.307 309.373 381.08 309.16ZM373.32 299.96C372.04 299.96 371.173 300.187 370.72 300.64C370.267 301.067 370.04 301.92 370.04 303.2H376.48V302.32C376.453 301.387 376.227 300.76 375.8 300.44C375.4 300.12 374.573 299.96 373.32 299.96ZM392.721 299.92C391.601 299.92 390.841 300.013 390.441 300.2C390.068 300.36 389.881 300.747 389.881 301.36C389.881 301.6 389.948 301.8 390.081 301.96C390.241 302.093 390.454 302.173 390.721 302.2L395.481 302.84C397.028 303.053 398.108 303.56 398.721 304.36C399.361 305.133 399.681 306.373 399.681 308.08C399.681 310.64 399.108 312.507 397.961 313.68C396.814 314.827 394.814 315.4 391.961 315.4C390.388 315.4 388.961 315.333 387.681 315.2C386.428 315.093 385.361 314.933 384.481 314.72V309.52C385.148 309.68 386.068 309.827 387.241 309.96C388.441 310.067 389.654 310.12 390.881 310.12C391.974 310.12 392.708 310.013 393.081 309.8C393.481 309.56 393.681 309.12 393.681 308.48C393.681 308.267 393.614 308.093 393.481 307.96C393.348 307.8 393.174 307.707 392.961 307.68L388.041 307.04C386.601 306.853 385.548 306.333 384.881 305.48C384.241 304.6 383.921 303.307 383.921 301.6C383.921 299.36 384.628 297.68 386.041 296.56C387.454 295.413 389.548 294.84 392.321 294.84C393.414 294.84 394.428 294.867 395.361 294.92C396.294 294.973 397.281 295.08 398.321 295.24V300.24C397.654 300.133 396.828 300.053 395.841 300C394.854 299.947 393.814 299.92 392.721 299.92ZM408.298 321.08H402.298V295.24H407.578L407.898 297.08H407.978C408.698 296.333 409.551 295.773 410.538 295.4C411.551 295.027 412.698 294.84 413.978 294.84C416.591 294.84 418.445 295.627 419.538 297.2C420.658 298.773 421.218 301.413 421.218 305.12C421.218 308.72 420.511 311.333 419.098 312.96C417.711 314.587 415.445 315.4 412.298 315.4C411.525 315.4 410.791 315.347 410.098 315.24C409.431 315.16 408.831 315.04 408.298 314.88V321.08ZM415.218 305.12C415.218 303.12 415.005 301.813 414.578 301.2C414.151 300.56 413.231 300.24 411.818 300.24C411.125 300.24 410.471 300.293 409.858 300.4C409.271 300.507 408.751 300.667 408.298 300.88V309.32C408.698 309.507 409.151 309.64 409.658 309.72C410.191 309.8 410.791 309.84 411.458 309.84C413.085 309.84 414.111 309.56 414.538 309C414.991 308.413 415.218 307.12 415.218 305.12ZM428.739 315.4C426.712 315.4 425.219 314.893 424.259 313.88C423.325 312.867 422.859 311.267 422.859 309.08C422.859 306.84 423.419 305.267 424.539 304.36C425.685 303.453 427.645 303 430.419 303C431.059 303 431.712 303.04 432.379 303.12C433.072 303.173 433.672 303.253 434.179 303.36V301.92C434.179 301.28 433.899 300.813 433.339 300.52C432.805 300.2 431.979 300.04 430.859 300.04C429.579 300.04 428.432 300.08 427.419 300.16C426.432 300.213 425.525 300.32 424.699 300.48V295.56C425.685 295.32 426.832 295.147 428.139 295.04C429.445 294.907 430.965 294.84 432.699 294.84C435.152 294.84 437.005 295.387 438.259 296.48C439.539 297.573 440.179 299.187 440.179 301.32V315H434.579L434.379 313.32H434.259C433.432 313.96 432.525 314.467 431.539 314.84C430.552 315.213 429.619 315.4 428.739 315.4ZM431.219 306.96C430.152 306.96 429.432 307.08 429.059 307.32C428.685 307.533 428.499 308 428.499 308.72C428.499 309.387 428.645 309.853 428.939 310.12C429.259 310.36 429.805 310.48 430.579 310.48C431.165 310.48 431.779 310.4 432.419 310.24C433.059 310.08 433.645 309.88 434.179 309.64V307.2C433.859 307.12 433.459 307.067 432.979 307.04C432.499 306.987 431.912 306.96 431.219 306.96ZM458.228 308.96V313.92C457.588 314.32 456.548 314.667 455.108 314.96C453.668 315.253 452.188 315.4 450.668 315.4C447.788 315.4 445.761 314.64 444.588 313.12C443.441 311.573 442.868 308.907 442.868 305.12C442.868 301.333 443.615 298.68 445.108 297.16C446.601 295.613 449.215 294.84 452.948 294.84C453.855 294.84 454.668 294.867 455.388 294.92C456.108 294.947 456.881 295.013 457.708 295.12V300.44C456.401 300.333 455.455 300.28 454.868 300.28C454.281 300.253 453.641 300.24 452.948 300.24C451.108 300.24 449.961 300.507 449.508 301.04C449.081 301.547 448.868 302.907 448.868 305.12C448.868 307.12 449.041 308.4 449.388 308.96C449.761 309.52 450.601 309.8 451.908 309.8C452.975 309.8 454.081 309.72 455.228 309.56C456.401 309.4 457.401 309.2 458.228 308.96ZM477.057 309.16V313.92C476.417 314.32 475.337 314.667 473.817 314.96C472.297 315.253 470.697 315.4 469.017 315.4C465.817 315.4 463.51 314.6 462.097 313C460.683 311.373 459.977 308.747 459.977 305.12C459.977 301.573 460.723 298.973 462.217 297.32C463.71 295.667 466.07 294.84 469.297 294.84C472.443 294.84 474.657 295.467 475.937 296.72C477.243 297.947 477.897 300.133 477.897 303.28C477.897 304.133 477.883 304.813 477.857 305.32C477.83 305.827 477.777 306.413 477.697 307.08H466.017C466.043 308.173 466.337 308.933 466.897 309.36C467.457 309.787 468.483 310 469.977 310C471.257 310 472.563 309.92 473.897 309.76C475.23 309.573 476.283 309.373 477.057 309.16ZM469.297 299.96C468.017 299.96 467.15 300.187 466.697 300.64C466.243 301.067 466.017 301.92 466.017 303.2H472.457V302.32C472.43 301.387 472.203 300.76 471.777 300.44C471.377 300.12 470.55 299.96 469.297 299.96ZM495.195 297.28L497.675 300.44L494.355 302.8L492.235 299.48L489.995 302.8L486.755 300.36L489.275 297.32L485.435 296.2L486.755 292.4L490.355 293.88L490.155 289.92H494.195L493.995 293.84L497.755 292.44L498.995 296.28L495.195 297.28ZM512.922 286.72L504.362 318.2H500.082L508.642 286.72H512.922Z" fill="white"/>
<path d="M134.44 359.28V363.2H130.56L129.64 369.32H133.04V373.24H129L128.04 379H123.96L124.88 373.24H121.08L120.16 379H116.04L117 373.24H113.68V369.32H117.64L118.6 363.2H115.08V359.28H119.32L120.2 353.92H124.28L123.4 359.28H127.16L128.08 353.92H132.16L131.28 359.28H134.44ZM125.52 369.32L126.48 363.2H122.72L121.72 369.32H125.52ZM151.229 360C151.229 361.547 150.909 362.8 150.269 363.76C149.629 364.72 148.669 365.387 147.389 365.76V365.84C148.963 365.947 150.149 366.507 150.949 367.52C151.749 368.533 152.149 369.96 152.149 371.8C152.149 374.253 151.403 376.133 149.909 377.44C148.443 378.747 146.323 379.4 143.549 379.4C141.976 379.4 140.509 379.32 139.149 379.16C137.816 379.027 136.803 378.827 136.109 378.56V373.28C137.096 373.467 138.083 373.6 139.069 373.68C140.056 373.76 141.176 373.8 142.429 373.8C143.896 373.8 144.909 373.613 145.469 373.24C146.056 372.867 146.349 372.2 146.349 371.24C146.349 370.36 146.096 369.72 145.589 369.32C145.083 368.92 144.296 368.72 143.229 368.72H138.709V363.6H142.269C143.363 363.6 144.163 363.413 144.669 363.04C145.176 362.667 145.429 362.067 145.429 361.24C145.429 360.387 145.203 359.787 144.749 359.44C144.323 359.093 143.589 358.92 142.549 358.92C141.909 358.92 141.096 358.973 140.109 359.08C139.123 359.187 137.963 359.347 136.629 359.56V354.56C137.483 354.267 138.656 354.027 140.149 353.84C141.669 353.627 143.096 353.52 144.429 353.52C146.669 353.52 148.363 354.067 149.509 355.16C150.656 356.253 151.229 357.867 151.229 360ZM173.488 379L166.528 353.92H170.208L174.368 369.8C174.474 370.227 174.581 370.733 174.688 371.32C174.821 371.88 175.101 373.347 175.528 375.72C176.008 373.293 176.314 371.8 176.448 371.24C176.581 370.68 176.701 370.2 176.808 369.8L181.368 353.92H184.928L189.528 369.8C189.634 370.2 189.754 370.667 189.888 371.2C190.021 371.733 190.328 373.213 190.808 375.64C191.101 374.013 191.341 372.72 191.528 371.76C191.741 370.773 191.888 370.12 191.968 369.8L196.088 353.92H199.648L192.688 379H188.848L184.808 365.56C184.514 364.573 184.234 363.52 183.968 362.4C183.701 361.28 183.408 359.947 183.088 358.4C182.768 359.947 182.474 361.28 182.208 362.4C181.941 363.52 181.661 364.573 181.368 365.56L177.368 379H173.488ZM205.561 379H202.281V359.24H205.281L205.441 360.92H205.601C206.641 360.307 207.681 359.853 208.721 359.56C209.761 359.24 210.787 359.08 211.801 359.08C212.227 359.08 212.507 359.08 212.641 359.08C212.801 359.08 212.921 359.093 213.001 359.12V362.28C212.814 362.227 212.574 362.2 212.281 362.2C212.014 362.173 211.587 362.16 211.001 362.16C210.041 362.16 209.094 362.28 208.161 362.52C207.254 362.733 206.387 363.067 205.561 363.52V379ZM219.782 355.8H216.262V352.4H219.782V355.8ZM219.662 379H216.382V359.24H219.662V379ZM236.537 375.92V378.68C236.11 378.867 235.524 379.013 234.777 379.12C234.057 379.253 233.364 379.32 232.697 379.32C230.297 379.32 228.577 378.787 227.537 377.72C226.524 376.653 226.017 374.813 226.017 372.2V362.04H223.057V359.24H226.057L226.577 354.44H229.297V359.24H236.337V362.04H229.297V372.08C229.297 373.707 229.59 374.813 230.177 375.4C230.79 375.987 231.857 376.28 233.377 376.28C233.857 376.28 234.404 376.24 235.017 376.16C235.657 376.08 236.164 376 236.537 375.92ZM254.386 375.16V377.92C253.693 378.293 252.666 378.627 251.306 378.92C249.973 379.187 248.613 379.32 247.226 379.32C244.133 379.32 241.92 378.52 240.586 376.92C239.253 375.32 238.586 372.68 238.586 369C238.586 365.453 239.28 362.88 240.666 361.28C242.053 359.653 244.266 358.84 247.306 358.84C250.133 358.84 252.16 359.48 253.386 360.76C254.613 362.013 255.226 364.12 255.226 367.08C255.226 367.613 255.213 368.107 255.186 368.56C255.16 369.013 255.106 369.56 255.026 370.2H241.906C241.933 372.387 242.373 373.947 243.226 374.88C244.106 375.813 245.613 376.28 247.746 376.28C248.893 376.28 250.093 376.173 251.346 375.96C252.6 375.747 253.613 375.48 254.386 375.16ZM252.226 366.64C252.2 364.88 251.813 363.64 251.066 362.92C250.32 362.173 249.066 361.8 247.306 361.8C245.333 361.8 243.933 362.227 243.106 363.08C242.306 363.907 241.906 365.373 241.906 367.48H252.186C252.186 367.427 252.186 367.307 252.186 367.12C252.213 366.907 252.226 366.747 252.226 366.64ZM270.784 379.32C268.757 379.32 267.264 378.84 266.304 377.88C265.371 376.893 264.904 375.347 264.904 373.24C264.904 371.107 265.477 369.6 266.624 368.72C267.771 367.813 269.717 367.36 272.464 367.36C273.371 367.36 274.264 367.4 275.144 367.48C276.024 367.56 276.851 367.68 277.624 367.84V365.92C277.624 364.453 277.251 363.4 276.504 362.76C275.757 362.12 274.557 361.8 272.904 361.8C271.677 361.8 270.597 361.853 269.664 361.96C268.731 362.04 267.797 362.187 266.864 362.4V359.56C267.931 359.293 269.011 359.107 270.104 359C271.224 358.893 272.491 358.84 273.904 358.84C276.277 358.84 278.037 359.4 279.184 360.52C280.331 361.613 280.904 363.32 280.904 365.64V379H277.904L277.744 377.16H277.664C276.864 377.8 275.824 378.32 274.544 378.72C273.291 379.12 272.037 379.32 270.784 379.32ZM272.824 370.04C271.011 370.04 269.744 370.267 269.024 370.72C268.331 371.147 267.984 371.92 267.984 373.04C267.984 374.213 268.277 375.067 268.864 375.6C269.451 376.107 270.411 376.36 271.744 376.36C272.784 376.36 273.851 376.2 274.944 375.88C276.037 375.56 276.931 375.16 277.624 374.68V370.44C276.744 370.307 275.917 370.213 275.144 370.16C274.397 370.08 273.624 370.04 272.824 370.04ZM296.147 385.08H292.867V359.24H295.707L295.907 361H296.027C296.853 360.307 297.84 359.773 298.987 359.4C300.133 359.027 301.36 358.84 302.667 358.84C305.36 358.84 307.28 359.64 308.427 361.24C309.6 362.84 310.187 365.453 310.187 369.08C310.187 372.707 309.48 375.32 308.067 376.92C306.653 378.52 304.293 379.32 300.987 379.32C300 379.32 299.093 379.253 298.267 379.12C297.467 378.987 296.76 378.787 296.147 378.52V385.08ZM306.907 369.08C306.907 366.36 306.52 364.467 305.747 363.4C305 362.333 303.587 361.8 301.507 361.8C300.52 361.8 299.573 361.947 298.667 362.24C297.787 362.507 296.947 362.907 296.147 363.44V375.48C296.813 375.747 297.493 375.947 298.187 376.08C298.907 376.213 299.707 376.28 300.587 376.28C303.067 376.28 304.733 375.773 305.587 374.76C306.467 373.72 306.907 371.827 306.907 369.08ZM317.787 352.4V379H314.507V352.4H317.787ZM329.462 379.32C327.275 379.32 325.635 378.773 324.542 377.68C323.449 376.587 322.902 374.947 322.902 372.76V359.24H326.182V372.36C326.182 373.72 326.529 374.707 327.222 375.32C327.915 375.933 329.009 376.24 330.502 376.24C331.409 376.24 332.315 376.133 333.222 375.92C334.155 375.68 335.089 375.32 336.022 374.84V359.24H339.302V379H336.302L336.142 377.36H336.062C334.675 378.08 333.475 378.587 332.462 378.88C331.449 379.173 330.449 379.32 329.462 379.32ZM352.625 385.48C351.292 385.48 350.039 385.387 348.865 385.2C347.719 385.04 346.772 384.813 346.025 384.52V381.6C346.639 381.84 347.532 382.04 348.705 382.2C349.905 382.36 351.092 382.44 352.265 382.44C354.265 382.44 355.652 382.04 356.425 381.24C357.199 380.467 357.585 379.08 357.585 377.08V375.84C356.599 376.427 355.545 376.88 354.425 377.2C353.305 377.493 352.172 377.64 351.025 377.64C348.385 377.64 346.492 376.907 345.345 375.44C344.225 373.973 343.665 371.573 343.665 368.24C343.665 364.853 344.385 362.44 345.825 361C347.292 359.56 349.772 358.84 353.265 358.84C354.519 358.84 355.865 358.92 357.305 359.08C358.745 359.213 359.932 359.387 360.865 359.6V376.16C360.865 379.627 360.252 382.04 359.025 383.4C357.799 384.787 355.665 385.48 352.625 385.48ZM353.265 361.8C350.705 361.8 349.012 362.24 348.185 363.12C347.359 364 346.945 365.707 346.945 368.24C346.945 370.64 347.292 372.307 347.985 373.24C348.705 374.147 350.079 374.6 352.105 374.6C352.985 374.6 353.892 374.48 354.825 374.24C355.785 373.973 356.705 373.613 357.585 373.16V362.24C356.945 362.107 356.252 362 355.505 361.92C354.785 361.84 354.039 361.8 353.265 361.8ZM369.509 355.8H365.989V352.4H369.509V355.8ZM369.389 379H366.109V359.24H369.389V379ZM377.943 379H374.663V359.24H377.503L377.663 361.16H377.783C378.85 360.36 379.957 359.773 381.103 359.4C382.277 359.027 383.583 358.84 385.023 358.84C387.21 358.84 388.863 359.387 389.983 360.48C391.13 361.573 391.703 363.187 391.703 365.32V379H388.423V365.72C388.423 364.387 388.05 363.4 387.303 362.76C386.557 362.12 385.41 361.8 383.863 361.8C382.903 361.8 381.917 361.96 380.903 362.28C379.917 362.573 378.93 363.013 377.943 363.6V379Z" fill="white"/>
</svg>
