<svg width="800" height="800" viewBox="0 0 800 800" fill="none" xmlns="http://www.w3.org/2000/svg">
<g clip-path="url(#clip0)">
<path d="M24.9598 32.5247C22.7729 40.5465 27.5031 48.8222 35.5249 51.009L86.1684 58.2448C86.1684 58.2448 95.291 60.7317 97.5834 52.3227C99.8758 43.9136 91.0311 40.4075 91.0311 40.4075L43.4441 21.9596C35.4223 19.7727 27.1466 24.5029 24.9598 32.5247Z" fill="#699BF7"/>
<path fill-rule="evenodd" clip-rule="evenodd" d="M124.189 175.033C124.226 177.587 123.156 180.134 121.048 181.904C117.326 185.027 111.777 184.541 108.655 180.819C105.532 177.098 106.017 171.549 109.739 168.426C111.848 166.657 114.543 166.046 117.051 166.525C117.014 163.972 118.084 161.424 120.193 159.655C123.914 156.532 129.463 157.018 132.586 160.739C135.709 164.461 135.223 170.01 131.502 173.133C129.393 174.902 126.698 175.513 124.189 175.033Z" fill="#0FA958"/>
<path fill-rule="evenodd" clip-rule="evenodd" d="M113.156 344.374L127.374 292.218L75.2182 278L61 330.156L113.156 344.374ZM107.954 335.273L118.273 297.42L80.4198 287.101L70.1005 324.954L107.954 335.273Z" fill="#FFC700"/>
<path fill-rule="evenodd" clip-rule="evenodd" d="M103.029 326.658L109.657 302.344L85.3433 295.716L78.715 320.03L103.029 326.658ZM97.1338 316.344L99.3432 308.239L91.2386 306.03L89.0292 314.135L97.1338 316.344Z" fill="#FFC700"/>
<path fill-rule="evenodd" clip-rule="evenodd" d="M307.412 110.933C302.17 110.096 297.918 111.1 296.597 113.914C294.61 118.143 300.001 124.86 308.638 128.916C317.275 132.972 325.886 132.832 327.873 128.602C329.194 125.789 327.251 121.875 323.261 118.376C328.502 119.212 332.754 118.208 334.076 115.395C335.338 112.706 333.62 109.012 329.981 105.636C334.903 106.279 338.843 105.243 340.106 102.554C341.427 99.741 339.484 95.8273 335.494 92.3281C340.735 93.1647 344.988 92.1604 346.309 89.347C348.295 85.1174 342.904 78.4005 334.268 74.3444C325.631 70.2883 317.02 70.429 315.033 74.6587C313.712 77.4719 315.655 81.3856 319.645 84.8848C314.404 84.0482 310.151 85.0525 308.83 87.8659C307.567 90.5546 309.286 94.2485 312.924 97.625C308.002 96.9814 304.063 98.0178 302.8 100.706C301.479 103.52 303.421 107.433 307.412 110.933Z" fill="#F24E1E"/>
<circle cx="334.364" cy="256.364" r="15.6582" transform="rotate(150.249 334.364 256.364)" fill="#C7B9FF"/>
<rect x="301.121" y="370.535" width="59.0155" height="58.2071" transform="rotate(150.249 301.121 370.535)" fill="#FF8577"/>
<g clip-path="url(#clip1)">
<path d="M357.805 205.349C361.931 212.568 371.128 215.075 378.346 210.949L419.273 180.255C419.273 180.255 427.482 175.563 423.157 167.996C418.832 160.429 410.099 164.204 410.099 164.204L363.405 184.808C356.186 188.934 353.679 198.131 357.805 205.349Z" fill="#699BF7"/>
<path fill-rule="evenodd" clip-rule="evenodd" d="M528.74 235.952C530.571 237.732 531.616 240.29 531.376 243.032C530.953 247.871 526.686 251.452 521.846 251.028C517.007 250.605 513.426 246.338 513.85 241.498C514.09 238.756 515.563 236.418 517.676 234.984C515.845 233.204 514.8 230.646 515.04 227.904C515.463 223.064 519.73 219.484 524.57 219.907C529.41 220.331 532.99 224.598 532.567 229.438C532.327 232.18 530.853 234.518 528.74 235.952Z" fill="#0FA958"/>
<path fill-rule="evenodd" clip-rule="evenodd" d="M640.679 363.496L613.854 316.563L566.92 343.388L593.746 390.322L640.679 363.496ZM630.566 360.739L611.096 326.676L577.033 346.146L596.503 380.209L630.566 360.739Z" fill="#FFC700"/>
<path fill-rule="evenodd" clip-rule="evenodd" d="M620.992 358.129L608.486 336.25L586.607 348.756L599.113 370.635L620.992 358.129ZM609.53 355.005L605.362 347.712L598.069 351.88L602.237 359.173L609.53 355.005Z" fill="#FFC700"/>
<path fill-rule="evenodd" clip-rule="evenodd" d="M612.971 61.0683C608.673 64.1829 606.377 67.8999 607.432 70.8235C609.018 75.2189 617.579 76.1565 626.554 72.9176C635.529 69.6787 641.519 63.4899 639.933 59.0944C638.878 56.1709 634.737 54.7771 629.441 55.1246C633.739 52.01 636.035 48.2929 634.98 45.3693C633.972 42.5752 630.145 41.1785 625.185 41.3636C629.12 38.3385 631.173 34.8198 630.165 32.0257C629.11 29.1022 624.969 27.7084 619.673 28.0559C623.97 24.9412 626.267 21.2241 625.212 18.3004C623.626 13.905 615.064 12.9675 606.089 16.2064C597.114 19.4453 591.124 25.6341 592.71 30.0295C593.766 32.9531 597.907 34.3468 603.203 33.9994C598.905 37.114 596.608 40.8311 597.663 43.7548C598.671 46.5489 602.499 47.9457 607.459 47.7606C603.524 50.7856 601.47 54.3044 602.479 57.0984C603.534 60.022 607.675 61.4157 612.971 61.0683Z" fill="#F24E1E"/>
<circle cx="734.866" cy="144.846" r="15.6582" transform="rotate(105.249 734.866 144.846)" fill="#C7B9FF"/>
<rect x="792.09" y="249.083" width="59.0155" height="58.2071" transform="rotate(105.249 792.09 249.083)" fill="#FF8577"/>
</g>
<g clip-path="url(#clip2)">
<path d="M11.8905 446.873C19.4952 443.511 28.3851 446.951 31.7467 454.556L46.473 503.548C46.473 503.548 50.2959 512.196 42.3241 515.72C34.3524 519.244 29.5632 511.023 29.5632 511.023L4.20779 466.729C0.84618 459.124 4.28585 450.234 11.8905 446.873Z" fill="#699BF7"/>
<path fill-rule="evenodd" clip-rule="evenodd" d="M167.634 523.68C170.164 523.335 172.523 521.896 173.957 519.547C176.488 515.4 175.179 509.986 171.032 507.455C166.885 504.923 161.471 506.233 158.94 510.38C157.506 512.729 157.305 515.486 158.154 517.894C155.624 518.24 153.265 519.678 151.831 522.028C149.299 526.174 150.609 531.588 154.756 534.119C158.902 536.651 164.316 535.341 166.848 531.194C168.282 528.845 168.483 526.088 167.634 523.68Z" fill="#0FA958"/>
<path fill-rule="evenodd" clip-rule="evenodd" d="M333.421 487.452L283.978 509.308L262.121 459.865L311.565 438.008L333.421 487.452ZM323.645 483.669L287.76 499.532L271.897 463.647L307.782 447.784L323.645 483.669Z" fill="#FFC700"/>
<path fill-rule="evenodd" clip-rule="evenodd" d="M314.39 480.088L291.341 490.277L281.152 467.228L304.201 457.039L314.39 480.088ZM303.311 475.801L295.628 479.198L292.231 471.515L299.915 468.118L303.311 475.801Z" fill="#FFC700"/>
<path fill-rule="evenodd" clip-rule="evenodd" d="M131.648 714.427C130.037 709.37 130.394 705.015 132.979 703.288C136.864 700.692 144.311 705.018 149.613 712.951C154.915 720.884 156.063 729.42 152.178 732.016C149.594 733.743 145.434 732.407 141.377 728.985C142.988 734.042 142.631 738.397 140.047 740.124C137.577 741.774 133.668 740.628 129.785 737.535C131.157 742.305 130.722 746.356 128.252 748.006C125.668 749.733 121.508 748.398 117.451 744.975C119.062 750.032 118.705 754.387 116.121 756.114C112.236 758.711 104.788 754.385 99.4863 746.452C94.1846 738.519 93.0361 729.983 96.9212 727.386C99.5054 725.659 103.666 726.995 107.722 730.417C106.111 725.36 106.468 721.005 109.053 719.278C111.522 717.628 115.432 718.774 119.314 721.867C117.942 717.097 118.378 713.046 120.847 711.396C123.431 709.669 127.591 711.004 131.648 714.427Z" fill="#F24E1E"/>
<circle r="15.6582" transform="matrix(0.36085 -0.932624 -0.932624 -0.36085 279.475 719.333)" fill="#C7B9FF"/>
<rect width="59.0155" height="58.2071" transform="matrix(0.36085 -0.932624 -0.932624 -0.36085 387.392 669.393)" fill="#FF8577"/>
</g>
<path d="M419.525 765.04C427.546 767.227 435.822 762.497 438.009 754.475L445.245 703.832C445.245 703.832 447.732 694.709 439.323 692.417C430.914 690.124 427.407 698.969 427.407 698.969L408.959 746.556C406.773 754.578 411.503 762.853 419.525 765.04Z" fill="#699BF7"/>
<path fill-rule="evenodd" clip-rule="evenodd" d="M562.033 665.811C564.586 665.774 567.134 666.844 568.903 668.952C572.026 672.674 571.541 678.223 567.819 681.345C564.097 684.468 558.548 683.983 555.426 680.261C553.656 678.152 553.045 675.457 553.525 672.949C550.972 672.986 548.424 671.916 546.655 669.807C543.532 666.086 544.017 660.537 547.739 657.414C551.461 654.291 557.009 654.777 560.132 658.498C561.902 660.607 562.513 663.302 562.033 665.811Z" fill="#0FA958"/>
<path fill-rule="evenodd" clip-rule="evenodd" d="M731.375 676.844L679.219 662.626L665 714.782L717.156 729L731.375 676.844ZM722.274 682.046L684.42 671.727L674.101 709.58L711.955 719.899L722.274 682.046Z" fill="#FFC700"/>
<path fill-rule="evenodd" clip-rule="evenodd" d="M713.659 686.971L689.345 680.342L682.716 704.656L707.03 711.284L713.659 686.971ZM703.345 692.866L695.24 690.656L693.031 698.761L701.135 700.97L703.345 692.866Z" fill="#FFC700"/>
<path fill-rule="evenodd" clip-rule="evenodd" d="M497.933 482.588C497.096 487.83 498.1 492.082 500.914 493.403C505.143 495.39 511.86 489.999 515.916 481.362C519.972 472.725 519.832 464.114 515.602 462.127C512.789 460.806 508.875 462.749 505.376 466.739C506.212 461.498 505.208 457.246 502.395 455.924C499.706 454.662 496.012 456.38 492.636 460.019C493.279 455.097 492.243 451.157 489.554 449.894C486.741 448.573 482.827 450.516 479.328 454.506C480.165 449.265 479.16 445.012 476.347 443.691C472.117 441.705 465.4 447.096 461.344 455.732C457.288 464.369 457.429 472.98 461.659 474.967C464.472 476.288 468.386 474.345 471.885 470.355C471.048 475.596 472.053 479.849 474.866 481.17C477.555 482.433 481.248 480.714 484.625 477.076C483.981 481.998 485.018 485.937 487.706 487.2C490.52 488.521 494.433 486.579 497.933 482.588Z" fill="#F24E1E"/>
<circle cx="643.364" cy="455.636" r="15.6582" transform="rotate(60.2489 643.364 455.636)" fill="#C7B9FF"/>
<rect x="757.535" y="488.879" width="59.0155" height="58.2071" transform="rotate(60.2489 757.535 488.879)" fill="#FF8577"/>
</g>
<defs>
<clipPath id="clip0">
<rect width="800" height="800" fill="white"/>
</clipPath>
<clipPath id="clip1">
<rect width="400" height="400" fill="white" transform="translate(317.157 200) rotate(-45)"/>
</clipPath>
<clipPath id="clip2">
<rect width="412.387" height="428.434" fill="white" transform="matrix(0.149513 0.98876 0.98876 -0.149513 -24 427.056)"/>
</clipPath>
</defs>
</svg>
