<svg width="284" height="76" viewBox="0 0 284 76" fill="none" xmlns="http://www.w3.org/2000/svg">
<g clip-path="url(#clip0)">
<path d="M162.525 32.9408H170.027V59.7266H162.525V56.2444C159.845 60.2623 156.362 60.5301 154.219 60.5301C145.913 60.5301 140.555 54.1016 140.555 46.3337C140.555 38.298 145.913 32.1373 153.683 32.1373C155.827 32.1373 159.845 32.4051 162.257 36.423V32.9408H162.525ZM148.593 46.3337C148.593 50.6194 151.54 53.8337 156.095 53.8337C160.381 53.8337 163.596 50.6194 163.596 46.3337C163.596 42.048 160.649 38.8337 156.095 38.8337C151.808 38.8337 148.593 42.048 148.593 46.3337ZM184.762 39.3694V59.7266H177.261V39.3694H174.313V32.9408H177.261V23.8337H184.762V32.9408H189.853V39.3694H184.762ZM207.536 39.3694C205.661 37.7623 204.053 37.4944 203.249 37.4944C201.374 37.4944 200.302 38.298 200.302 39.6373C200.302 40.4408 200.57 41.2444 202.713 42.048L204.589 42.5837C206.732 43.3873 209.947 44.1908 211.287 46.3337C212.091 47.4051 212.627 49.0123 212.627 50.8873C212.627 53.298 211.823 55.7087 209.679 57.5837C207.536 59.4587 204.857 60.5301 201.642 60.5301C196.015 60.5301 193.068 57.8516 191.193 55.9766L195.212 51.423C196.819 53.0301 198.962 54.6373 201.106 54.6373C203.249 54.6373 204.857 53.5658 204.857 51.6908C204.857 50.0837 203.517 49.2801 202.446 49.0123L200.838 48.4766C198.962 47.673 196.819 46.8694 195.212 45.2623C193.872 43.923 193.068 42.3158 193.068 40.173C193.068 37.4944 194.408 35.3516 195.747 34.0123C197.891 32.4051 200.57 32.1373 202.713 32.1373C204.589 32.1373 207.804 32.4051 211.287 35.0837L207.536 39.3694ZM223.879 36.423C226.559 32.673 230.31 32.1373 232.453 32.1373C240.223 32.1373 245.581 38.298 245.581 46.3337C245.581 54.3694 240.223 60.5301 232.185 60.5301C230.578 60.5301 226.559 60.2623 223.612 56.2444V59.7266H216.378V14.7266H223.879V36.423ZM223.076 46.3337C223.076 50.6194 226.023 53.8337 230.578 53.8337C234.864 53.8337 238.079 50.6194 238.079 46.3337C238.079 42.048 235.132 38.8337 230.578 38.8337C226.023 38.8337 223.076 42.048 223.076 46.3337ZM257.906 55.7087L245.046 32.9408H253.887L262.193 48.2087L269.695 32.9408H278.268L256.834 73.923H248.261L257.906 55.7087ZM138.679 37.4944H119.925V44.9944H129.838C128.23 50.0837 124.479 53.5659 117.513 53.5659C109.744 53.5659 104.117 47.1373 104.117 39.3694C104.117 31.6016 109.476 24.9051 117.245 24.9051C121.532 24.9051 125.819 27.048 128.498 30.5301L134.661 26.5123C130.642 20.8873 124.212 17.673 117.245 17.673C105.457 17.673 95.8115 27.3158 95.8115 39.3694C95.8115 51.423 104.921 61.0658 117.245 61.0658C129.57 61.0658 138.679 51.423 138.679 39.3694C138.947 38.5658 138.679 38.0301 138.679 37.4944Z" fill="white"/>
<path d="M66.981 38.2983H48.2263V43.6554H61.0867C59.2112 51.6911 53.3168 58.3876 45.547 61.0661L14.7357 30.2626C17.9508 20.8876 27.0602 14.1911 37.5093 14.1911C45.547 14.1911 52.781 18.209 57.3357 24.3697L61.3546 20.8876C55.9961 13.6554 47.4225 8.83398 37.5093 8.83398C23.5772 8.83398 11.7885 18.7447 8.84137 31.8697L44.2074 67.2268C57.0678 64.0126 66.981 52.2268 66.981 38.2983ZM8.0376 38.5661C8.0376 46.0661 10.9848 53.2983 16.6112 58.9233C22.2376 64.5483 29.7395 67.4947 36.9734 67.4947L8.0376 38.5661Z" fill="white"/>
<path d="M37.5094 0.797852C16.8792 0.797852 0 17.6729 0 38.2979C0 58.9229 16.8792 75.7979 37.5094 75.7979C58.1396 75.7979 75.0189 58.9229 75.0189 38.2979C75.0189 17.6729 58.1396 0.797852 37.5094 0.797852ZM16.6113 59.1907C10.9849 53.5657 8.03774 46.0657 8.03774 38.8336L37.2415 67.7621C29.7396 67.4943 22.2377 64.8157 16.6113 59.1907ZM43.9396 66.9586L8.84151 31.8693C11.7887 18.7443 23.5774 8.83357 37.5094 8.83357C47.4226 8.83357 55.9962 13.655 61.3547 20.8871L57.3358 24.3693C52.7811 18.2086 45.5472 14.1907 37.5094 14.1907C27.0604 14.1907 18.2189 20.8871 14.7358 30.2621L45.5472 61.0657C53.317 58.3871 59.2113 51.6907 61.0868 43.655H48.2264V38.2979H66.9811C66.9811 52.2264 57.0679 64.0121 43.9396 66.9586Z" fill="#663399"/>
</g>
<defs>
<clipPath id="clip0">
<rect width="284" height="75" fill="white" transform="translate(0 0.797852)"/>
</clipPath>
</defs>
</svg>
