<svg width="992" height="232" viewBox="0 0 992 232" fill="none" xmlns="http://www.w3.org/2000/svg">
<g clip-path="url(#clip0)">
<g clip-path="url(#clip1)" filter="url(#filter0_d)">
<rect width="1147" height="31" transform="translate(-205 266.317) rotate(-19.9479)" fill="white"/>
<rect width="80" height="191.909" transform="matrix(0.0515913 -0.998668 0.680121 0.7331 -82.6592 216.529)" fill="#FF8577"/>
<rect width="80" height="191.909" transform="matrix(0.0515913 -0.998668 0.680121 0.7331 21.4001 178.762)" fill="#FF8577"/>
<rect width="80" height="191.909" transform="matrix(0.0515913 -0.998668 0.680121 0.7331 125.459 140.994)" fill="#FF8577"/>
<rect width="80" height="191.909" transform="matrix(0.0515913 -0.998668 0.680121 0.7331 229.519 103.228)" fill="#FF8577"/>
<rect width="80" height="191.909" transform="matrix(0.0515913 -0.998668 0.680121 0.7331 334.032 66.0977)" fill="#FF8577"/>
<rect width="80" height="191.909" transform="matrix(0.0515913 -0.998668 0.680121 0.7331 438.092 28.3301)" fill="#FF8577"/>
<rect width="80" height="191.909" transform="matrix(0.0515913 -0.998668 0.680121 0.7331 542.151 -9.43652)" fill="#FF8577"/>
<rect width="80" height="191.909" transform="matrix(0.0515913 -0.998668 0.680121 0.7331 646.21 -47.2041)" fill="#FF8577"/>
<rect width="80" height="191.909" transform="matrix(0.0515913 -0.998668 0.680121 0.7331 750.27 -84.9717)" fill="#FF8577"/>
</g>
<g clip-path="url(#clip2)" filter="url(#filter1_d)">
<rect width="1147" height="31" transform="translate(-158 155.601) rotate(-9.86944)" fill="white"/>
<rect width="80" height="191.909" transform="matrix(0.225559 -0.97423 0.541336 0.840806 -28.8342 127.99)" fill="#FF8577"/>
<rect width="80" height="191.909" transform="matrix(0.225559 -0.97423 0.541336 0.840806 80.2285 109.016)" fill="#FF8577"/>
<rect width="80" height="191.909" transform="matrix(0.225559 -0.97423 0.541336 0.840806 189.291 90.041)" fill="#FF8577"/>
<rect width="80" height="191.909" transform="matrix(0.225559 -0.97423 0.541336 0.840806 298.354 71.0664)" fill="#FF8577"/>
<rect width="80" height="191.909" transform="matrix(0.225559 -0.97423 0.541336 0.840806 407.752 52.7998)" fill="#FF8577"/>
<rect width="80" height="191.909" transform="matrix(0.225559 -0.97423 0.541336 0.840806 516.815 33.8252)" fill="#FF8577"/>
<rect width="80" height="191.909" transform="matrix(0.225559 -0.97423 0.541336 0.840806 625.878 14.8506)" fill="#FF8577"/>
<rect width="80" height="191.909" transform="matrix(0.225559 -0.97423 0.541336 0.840806 734.94 -4.12402)" fill="#FF8577"/>
<rect width="80" height="191.909" transform="matrix(0.225559 -0.97423 0.541336 0.840806 844.003 -23.0986)" fill="#FF8577"/>
</g>
</g>
<defs>
<filter id="filter0_d" x="-209" y="-125" width="1096.76" height="428.457" filterUnits="userSpaceOnUse" color-interpolation-filters="sRGB">
<feFlood flood-opacity="0" result="BackgroundImageFix"/>
<feColorMatrix in="SourceAlpha" type="matrix" values="0 0 0 0 0 0 0 0 0 0 0 0 0 0 0 0 0 0 127 0"/>
<feOffset dy="4"/>
<feGaussianBlur stdDeviation="2"/>
<feColorMatrix type="matrix" values="0 0 0 0 0 0 0 0 0 0 0 0 0 0 0 0 0 0 0.25 0"/>
<feBlend mode="normal" in2="BackgroundImageFix" result="effect1_dropShadow"/>
<feBlend mode="normal" in="SourceGraphic" in2="effect1_dropShadow" result="shape"/>
</filter>
<filter id="filter1_d" x="-162" y="-40.999" width="1143.34" height="235.142" filterUnits="userSpaceOnUse" color-interpolation-filters="sRGB">
<feFlood flood-opacity="0" result="BackgroundImageFix"/>
<feColorMatrix in="SourceAlpha" type="matrix" values="0 0 0 0 0 0 0 0 0 0 0 0 0 0 0 0 0 0 127 0"/>
<feOffset dy="4"/>
<feGaussianBlur stdDeviation="2"/>
<feColorMatrix type="matrix" values="0 0 0 0 0 0 0 0 0 0 0 0 0 0 0 0 0 0 0.25 0"/>
<feBlend mode="normal" in2="BackgroundImageFix" result="effect1_dropShadow"/>
<feBlend mode="normal" in="SourceGraphic" in2="effect1_dropShadow" result="shape"/>
</filter>
<clipPath id="clip0">
<rect width="992" height="232" fill="white"/>
</clipPath>
<clipPath id="clip1">
<rect width="1147" height="31" fill="white" transform="translate(-205 266.317) rotate(-19.9479)"/>
</clipPath>
<clipPath id="clip2">
<rect width="1147" height="31" fill="white" transform="translate(-158 155.601) rotate(-9.86944)"/>
</clipPath>
</defs>
</svg>
