<svg viewBox="0 0 81 40" xmlns="http://www.w3.org/2000/svg">
<path d="M66.8512 37.4609C67.2213 37.4609 67.4157 37.3294 67.4157 37.067C67.4157 36.8333 67.2277 36.7124 66.8676 36.7124L66.7616 36.7124L66.7616 37.4599L66.8512 37.4609ZM68.2148 38.9935L67.5798 38.9935L66.7629 37.9064L66.7629 38.9935L66.2442 38.9935L66.2442 36.244L66.7883 36.244C67.5298 36.244 67.9231 36.5241 67.9231 37.0596C67.9231 37.4168 67.691 37.734 67.3664 37.8284L67.3286 37.8423L68.2148 38.9935ZM57.7377 32.6428L57.7377 23.7141C57.7298 23.4784 57.6302 23.2551 57.4601 23.0918C57.29 22.9285 57.0628 22.8381 56.827 22.8399C56.5912 22.8417 56.3654 22.9356 56.1978 23.1015C56.0302 23.2673 55.934 23.4922 55.9298 23.7279L55.9298 32.6415L57.7377 32.6428ZM57.7377 39.9116L57.7377 35.0438L55.9298 35.0438L55.9298 39.9116L50.6132 39.9116L50.6132 22.2608C50.6125 22.0331 50.6567 21.8074 50.7433 21.5968C50.8298 21.3861 50.9571 21.1946 51.1177 21.0332C51.2783 20.8717 51.4692 20.7435 51.6794 20.6558C51.8896 20.5682 52.115 20.5228 52.3427 20.5223L61.3263 20.5223C61.5542 20.5227 61.7796 20.568 61.9899 20.6556C62.2002 20.7433 62.3912 20.8715 62.5519 21.0329C62.7126 21.1944 62.8399 21.3859 62.9266 21.5966C63.0132 21.8073 63.0575 22.033 63.0568 22.2608L63.0568 39.91L57.7377 39.9116Z" fill="#fff"/>
<path d="M43.9884 0.135666C43.7257 0.175963 43.4726 1.14308 42.9659 1.64695C42.5945 2.01059 42.1313 1.9877 41.885 2.43741C41.7915 2.60536 41.8205 2.89195 41.7157 3.16694C41.5088 3.71755 40.7789 3.76687 40.7789 4.36649C40.7766 5.01413 41.3875 5.13792 41.9166 5.59763C42.3295 5.96739 42.3698 6.22239 42.8698 6.40162C43.2966 6.54702 43.9317 6.07216 44.5036 6.2427C44.9733 6.38293 45.4227 6.48383 45.5287 6.9661C45.6222 7.41065 45.5226 8.09989 44.953 8.02026C44.7596 7.99898 43.9291 7.71852 42.9066 7.82684C41.6728 7.96707 40.265 8.36971 40.1274 9.74463C40.0516 10.5135 41.0023 11.421 41.9204 11.2359C42.5555 11.1108 42.255 10.3623 42.601 9.99834C43.0542 9.53283 45.6222 11.6247 48.0097 11.6247C49.0145 11.6247 49.7621 11.371 50.5046 10.5931C50.5739 10.5338 50.6586 10.4065 50.766 10.3997C50.8669 10.4074 51.0436 10.507 51.1016 10.5499C53.0245 12.0947 54.4778 15.1931 61.5445 15.2308C62.5381 15.2359 63.6706 15.7108 64.5948 16.5541C65.4191 17.3165 65.9014 18.5022 66.3698 19.7053C67.0767 21.5116 68.3433 23.2672 70.266 25.2214C70.3711 25.3262 71.9529 26.556 72.079 26.6482C72.0993 26.6608 72.2157 26.9384 72.1757 27.0938C72.129 28.2656 71.9588 31.6731 74.4987 31.8272C75.1199 31.8594 74.9571 31.4219 74.9571 31.1215C74.9571 30.528 74.8472 29.9384 75.1606 29.331C75.5883 28.4954 74.2528 28.1102 74.2918 26.3036C74.3195 24.9564 73.1883 25.186 72.6138 24.1595C72.2831 23.5651 71.9887 23.2495 72.0103 22.5222C72.1393 18.4281 71.1399 15.7398 70.6406 15.0793C70.2518 14.5805 69.9297 14.3826 70.286 14.1515C72.4059 12.7511 72.8869 11.4481 72.8869 11.4481C74.0152 8.79815 75.0284 6.37777 76.4259 5.31233C76.7073 5.09247 77.4297 4.55346 77.8727 4.34134C79.1751 3.72626 79.863 3.35391 80.2418 2.98512C80.8414 2.40066 81.3146 1.18241 80.7402 0.443856C80.0258 -0.467814 78.7882 0.25559 78.2444 0.578608C74.3469 2.89195 73.7724 6.97223 72.4226 9.31491C71.3456 11.1873 69.5945 12.5622 68.029 12.6744C66.8546 12.7617 65.5896 12.5241 64.3295 11.9713C61.267 10.6279 59.5887 8.89325 59.1935 8.58635C58.3701 7.95127 51.9791 1.67758 46.8015 1.42129C46.8015 1.42129 46.159 0.134699 45.9955 0.1131C45.6184 0.0660335 45.2293 0.882926 44.953 0.976414C44.6915 1.06345 44.2525 0.0915009 43.9884 0.134376L43.9884 0.135666ZM21.1941 37.5783C20.7067 37.5667 20.2915 37.1666 20.2915 36.6718L20.2915 20.5209L14.9685 20.5209L14.9685 38.3243C14.9685 39.1969 15.6755 39.909 16.5426 39.909L25.8492 39.909C26.0565 39.9085 26.2617 39.867 26.453 39.787C26.6443 39.7069 26.8179 39.59 26.9639 39.4428C27.1099 39.2956 27.2255 39.121 27.3039 38.9291C27.3824 38.7371 27.4222 38.5316 27.4211 38.3243L27.4211 20.5222L22.1019 20.5222L22.0968 36.6731C22.0968 37.1679 21.6825 37.568 21.1941 37.5796L21.1941 37.5783ZM39.0165 20.5222L30.9601 20.5222C30.7323 20.5227 30.5069 20.5681 30.2967 20.6557C30.0865 20.7434 29.8956 20.8716 29.735 21.0331C29.5743 21.1945 29.447 21.386 29.3604 21.5967C29.2738 21.8073 29.2296 22.033 29.2302 22.2608L29.2302 39.91L34.5587 39.91L34.5587 23.7205C34.561 23.4833 34.6563 23.2566 34.8241 23.0891C34.992 22.9216 35.2189 22.8267 35.456 22.8249C35.6931 22.8231 35.9215 22.9145 36.0918 23.0794C36.2622 23.2443 36.361 23.4695 36.3669 23.7066L36.3669 39.9103L41.6728 39.9103L41.6728 23.7063C41.679 23.2153 42.0781 22.8314 42.5755 22.8314C42.8128 22.8304 43.0409 22.9233 43.21 23.0899C43.3791 23.2565 43.4755 23.4831 43.4781 23.7205L43.4781 39.9103L48.805 39.9103L48.805 22.2608C48.8055 22.0329 48.7611 21.8073 48.6744 21.5966C48.5877 21.386 48.4604 21.1944 48.2997 21.033C48.1389 20.8716 47.948 20.7434 47.7377 20.6557C47.5275 20.5681 47.302 20.5227 47.0742 20.5222L39.0165 20.5222ZM7.84759 23.7543C7.84913 23.6344 7.82697 23.5153 7.78241 23.404C7.73784 23.2926 7.67173 23.1912 7.58787 23.1054C7.50402 23.0197 7.40406 22.9514 7.29373 22.9043C7.18341 22.8573 7.06488 22.8325 6.94495 22.8314L6.04071 22.8314L6.04071 32.6379L6.94495 32.6379C7.06425 32.6383 7.18244 32.615 7.29264 32.5693C7.40284 32.5236 7.50284 32.4564 7.58684 32.3717C7.67084 32.287 7.73715 32.1864 7.78192 32.0758C7.82668 31.9652 7.84901 31.8468 7.84759 31.7276L7.84759 23.7543ZM11.4195 35.0374L6.04199 35.0374L6.04199 39.9097L0.722845 39.9097L0.722846 20.5222L11.4537 20.5222C12.4143 20.5222 13.1642 21.3027 13.1642 22.2685L13.1642 33.2917C13.1649 33.5211 13.1203 33.7484 13.0329 33.9605C12.9455 34.1726 12.817 34.3653 12.6549 34.5276C12.4927 34.6898 12.3001 34.8185 12.0881 34.9061C11.8761 34.9937 11.6489 35.0385 11.4195 35.038L11.4195 35.0374ZM67.0629 35.5744C65.9936 35.5744 65.0964 36.4987 65.0964 37.6186C65.0964 38.7385 65.9942 39.6589 67.0977 39.6589C68.1938 39.6589 69.0787 38.7424 69.0787 37.6186C69.0787 36.4948 68.1925 35.5744 67.0977 35.5744L67.0629 35.5744ZM69.4594 37.6125C69.4594 38.929 68.404 40 67.0971 40C66.7837 40.0005 66.4733 39.9391 66.1837 39.8192C65.8942 39.6994 65.6312 39.5234 65.4099 39.3015C65.1886 39.0796 65.0134 38.8162 64.8943 38.5263C64.7752 38.2364 64.7146 37.9258 64.716 37.6125C64.716 36.313 65.7763 35.2269 67.058 35.2269C68.404 35.2269 69.4594 36.2801 69.4594 37.6125Z" fill="#fff"/>
</svg>
