<svg width="353" height="346" viewBox="0 0 353 346" fill="none" xmlns="http://www.w3.org/2000/svg">
<g clip-path="url(#clip0)">
<rect width="353" height="346" fill="#5D57F4"/>
<rect x="46" y="255" width="255" height="255" rx="10" fill="white"/>
<circle cx="91" cy="300" r="19.5" fill="#FFC700" stroke="black" stroke-width="3"/>
<path d="M290.5 8C290.5 55.1963 251.573 93.5 203.5 93.5C155.427 93.5 116.5 55.1963 116.5 8C116.5 -39.1963 155.427 -77.5 203.5 -77.5C251.573 -77.5 290.5 -39.1963 290.5 8Z" fill="#C7B9FF" stroke="black" stroke-width="3"/>
<path d="M362.5 166C362.5 204.364 330.956 235.5 292 235.5C253.044 235.5 221.5 204.364 221.5 166C221.5 127.636 253.044 96.5 292 96.5C330.956 96.5 362.5 127.636 362.5 166Z" fill="#11A95A" stroke="black" stroke-width="3"/>
<circle cx="173" cy="300" r="19.5" fill="#C7B9FF" stroke="black" stroke-width="3"/>
<path d="M201 94V204.12H173V281" stroke="black" stroke-width="3"/>
<circle cx="255" cy="300" r="19.5" fill="#11A95A" stroke="black" stroke-width="3"/>
<path d="M255.5 279.5L255.5 254.75L255.5 225.5" stroke="black" stroke-width="3"/>
<path d="M-54 79H96.3242L166 146.5L96.3242 214H-54V79Z" fill="#FFC700" stroke="black" stroke-width="3"/>
<path d="M19 215V300H70" stroke="black" stroke-width="3"/>
</g>
<defs>
<clipPath id="clip0">
<rect width="353" height="346" fill="white"/>
</clipPath>
</defs>
</svg>
